<?xml version="1.0" encoding="UTF-8" standalone="no"?><!DOCTYPE svg PUBLIC "-//W3C//DTD SVG 1.1//EN" "http://www.w3.org/Graphics/SVG/1.1/DTD/svg11.dtd"><svg width="100%" height="100%" viewBox="0 0 441 1618" version="1.1" xmlns="http://www.w3.org/2000/svg" xmlns:xlink="http://www.w3.org/1999/xlink" xml:space="preserve" xmlns:serif="http://www.serif.com/" style="fill-rule:evenodd;clip-rule:evenodd;stroke-linejoin:round;stroke-miterlimit:2;"><g><path d="M131.731,228.1l108.375,0c19.679,16.558 44.457,25.215 64.643,41.083c19.755,15.53 30.077,37.76 36.708,61.496c8.101,29 13.863,58.539 22.547,87.413c9.874,32.837 21.636,65.069 35.091,96.604c-13.399,9.012 -26.042,18.843 -39.305,27.026c-19.361,-13.008 -34.255,-33.512 -46.586,-53.07c-6.505,-10.317 -36.341,-60.636 -46.414,-58.417c-27.886,6.142 -134.472,54.568 -146.119,57.641l-7.898,0c-4.062,-24.009 -8.134,-48.032 -13.41,-71.809c-2.624,-11.822 13.281,-148.865 32.37,-187.968Z" style="fill:#823e2e;fill-rule:nonzero;"/><path d="M363.366,543.221c1.917,5.47 3.594,12.263 8.684,15.702c1.806,1.22 4.873,2.485 6.87,0.989c0.484,-0.363 0.787,-0.858 0.978,-1.416c0.142,1.521 0.08,3.042 -0.415,4.554c-1.335,4.09 -4.677,7.278 -5.298,11.651c-0.268,1.888 0.009,4.035 1.549,5.329c1.42,1.195 3.445,1.24 5.103,0.543c1.737,-0.731 2.928,-2.25 3.938,-3.795c-1.895,3.665 -3.784,7.654 -3.374,11.683c0.459,4.515 4.81,6.629 8.566,3.882c1.993,-1.459 3.404,-3.787 4.66,-5.916l-0.679,2.438c-0.825,2.961 -2.06,6.48 -0.097,9.273c1.749,2.489 4.847,2.379 7.159,0.742c2.49,-1.763 4.26,-4.596 5.622,-7.274c0.309,-0.608 0.548,-1.248 0.827,-1.871c0.305,1.054 0.744,2.053 1.401,2.927c1.8,2.397 4.448,2.614 6.733,0.738c3.505,-2.878 6.132,-7.548 8.301,-11.457c2.476,-4.463 4.512,-9.154 6.521,-13.84c4.129,-9.634 8.259,-19.552 9.662,-30.02c0.455,-3.404 0.347,-6.992 -2.57,-9.277c-2.054,-1.609 -4.705,-2.013 -7.242,-1.694c-0.157,-1.334 -0.519,-2.633 -1.227,-3.813c-1.151,-1.921 -3.049,-3.34 -5.176,-4.002c-2.997,-0.933 -6.198,-0.025 -8.49,1.969c-0.448,-1.89 -1.17,-3.705 -2.493,-5.137c-1.765,-1.911 -4.503,-3.221 -7.118,-2.496c-2.354,0.652 -4.083,2.739 -5.523,4.716c-0.212,-0.962 -0.438,-1.926 -0.825,-2.838c-1.533,-3.613 -5.306,-8.528 -9.817,-7c-2.064,0.699 -3.655,2.376 -4.808,4.172c-1.184,1.846 -1.948,3.904 -2.296,6.062c-6.513,1.096 -14,2.363 -18.86,7.11c-5.128,5.007 -2.298,11.572 -0.267,17.368Z" style="fill:#823e2e;fill-rule:nonzero;"/><path d="M201.629,170.81c0,-26.203 21.291,-47.525 47.456,-47.525c26.165,0 47.456,21.322 47.456,47.525c0,26.203 -21.291,47.525 -47.456,47.525c-26.165,0 -47.456,-21.322 -47.456,-47.525Zm6.891,0c0,22.402 18.196,40.624 40.565,40.624c22.37,0 40.565,-18.221 40.565,-40.624c0,-22.401 -18.195,-40.624 -40.565,-40.624c-22.369,0 -40.565,18.222 -40.565,40.624Z" style="fill:#823e2e;fill-rule:nonzero;"/><path d="M205.924,170.486c0,-23.342 18.963,-42.329 42.264,-42.329c23.309,0 42.272,18.988 42.272,42.329c0,23.343 -18.963,42.333 -42.272,42.333c-23.301,0 -42.264,-18.991 -42.264,-42.333Zm10.038,0c0,17.799 14.457,32.281 32.226,32.281c17.777,0 32.234,-14.482 32.234,-32.281c0,-17.799 -14.457,-32.277 -32.234,-32.277c-17.769,0 -32.226,14.478 -32.226,32.277Z" style="fill:#f7a64f;fill-rule:nonzero;"/><path d="M112.854,1079.739l133.433,0c-5.481,13.227 -59.516,375.398 -56.171,398.133c4.886,33.206 11.514,37.61 30.668,49.141c8.307,5.001 16.748,10.536 23.673,17.35c5.908,5.813 13.065,10.254 18.951,16.088c6.695,6.634 15.106,9.389 24.846,10.263c7.657,0.687 15.469,2.406 20.756,4.622c4.693,1.967 6.349,6.359 5.302,9.649c-1.647,5.179 -5.786,6.169 -11.311,7.485c-10.43,2.484 -57.108,-2.555 -78.737,-6.661c-9.434,-1.79 -25.52,-4.659 -35.042,-5.914c-17.259,-2.273 -24.023,4.317 -40.481,4.51c-19.155,0.225 -27.831,-5.333 -30.733,-20.761c-2.798,-14.871 14.742,-29.42 17.432,-71.447c2.341,-36.565 -94.036,-289.12 -22.586,-412.457Z" style="fill:#823e2e;fill-rule:nonzero;"/><path d="M278.524,1095.169c-0.011,0.014 -0.01,0.034 -0.022,0.047c6.169,75.318 11.754,150.71 18.583,225.97c3.291,36.265 9.509,71.694 20.262,106.519c6.743,21.837 14.882,43.18 23.636,64.275c6.614,13.024 14.06,25.457 21.732,37.966c8.66,14.12 10.766,30.839 21.731,43.691c4.963,5.818 10.943,10.675 17.453,14.652c4.99,3.048 10.894,5.923 13.144,11.734c1.46,3.772 1.296,8.487 -1.789,11.431c-3.443,3.285 -8.452,2.785 -12.802,1.868c-0.728,2.315 -2.733,3.598 -5.09,3.859c-1.155,0.129 -2.334,0.051 -3.492,-0.016c-1.335,-0.076 -2.7,-0.21 -3.992,-0.576c-1.371,-0.389 -2.684,-1.103 -3.756,-2.067c-0.124,0.126 -0.193,0.283 -0.334,0.398c-1.885,1.521 -4.462,1.494 -6.724,1.04c-3.338,-0.671 -6.242,-2.58 -8.818,-4.796c-0.098,1.215 -0.5,2.38 -1.411,3.306c-1.773,1.8 -4.684,2.057 -7.069,1.847c-3.182,-0.28 -6.132,-1.56 -8.605,-3.481c-1.477,2.161 -4.601,3.109 -7.781,2.795c-7.371,-0.725 -15.535,-5.694 -21.263,-10.078c-7.447,-5.698 -12.344,-12.786 -17.108,-20.736c-5.908,-9.857 -13.454,-17.138 -23.743,-22.313c-15.304,-7.7 -30.169,-15.747 -33.047,-34.413c-1.299,-8.421 1.31,-15.778 4.646,-23.381c2.617,-5.968 4.527,-11.839 5.586,-17.816c-1.494,-16.789 -3.918,-33.463 -8.44,-49.738c-8.192,-29.483 -24.994,-55.628 -36.712,-83.738c-22.991,-55.151 -35.958,-113.884 -43.839,-172.966c-3.778,-28.324 -6.349,-56.783 -8.36,-85.283l117.423,0Z" style="fill:#823e2e;fill-rule:nonzero;"/><path d="M306.385,1590.155c-3.615,-5.857 -7.788,-11.33 -12.481,-16.361c-1.449,-1.554 0.88,-3.896 2.334,-2.337c4.88,5.23 9.241,10.941 12.997,17.03c1.12,1.814 -1.734,3.477 -2.85,1.668Z" style="fill:#612516;fill-rule:nonzero;"/><path d="M399.357,1611.214c0.486,-4.805 -4.791,-7.059 -8.506,-8.324c-2.376,-0.809 -4.756,-1.606 -6.931,-2.885c-2.249,-1.321 -4.274,-2.994 -6.287,-4.644c-0.695,-0.57 -0.579,-1.745 0,-2.338c0.675,-0.69 1.648,-0.562 2.334,0c2.157,1.769 4.341,3.536 6.843,4.799c2.39,1.205 5.025,1.817 7.496,2.824c4.291,1.75 8.876,5.379 8.352,10.568c-0.091,0.895 -0.693,1.643 -1.65,1.653c-0.824,0.008 -1.74,-0.766 -1.65,-1.653Z" style="fill:#612516;fill-rule:nonzero;"/><path d="M382.181,1612.767c0.159,-1.648 -1.15,-2.692 -2.487,-3.386c-1.668,-0.864 -3.461,-1.45 -5.125,-2.33c-3.33,-1.763 -6.351,-4.137 -8.881,-6.93c-1.424,-1.572 0.902,-3.916 2.334,-2.337c2.683,2.961 5.881,5.35 9.496,7.053c1.808,0.853 3.753,1.422 5.356,2.658c1.604,1.236 2.81,3.181 2.608,5.272c-0.086,0.889 -0.698,1.653 -1.65,1.653c-0.826,0 -1.737,-0.759 -1.65,-1.653Z" style="fill:#612516;fill-rule:nonzero;"/><path d="M366.118,1610.376c-0.663,-2.317 -3.026,-3.685 -5.126,-4.851c-2.607,-1.45 -5.069,-3.062 -7.388,-4.944c-0.692,-0.563 -0.584,-1.753 0,-2.337c0.685,-0.686 1.639,-0.564 2.334,0c2.353,1.91 4.93,3.387 7.547,4.892c2.555,1.47 4.97,3.413 5.816,6.362c0.587,2.049 -2.597,2.924 -3.184,0.88Z" style="fill:#612516;fill-rule:nonzero;"/><path d="M349.227,1611.568c-0.215,-2.659 -3.037,-4.321 -5.267,-5.36c-2.811,-1.309 -5.799,-2.333 -7.956,-4.682c-0.603,-0.657 -0.648,-1.688 0,-2.337c0.612,-0.613 1.729,-0.66 2.334,0c2.212,2.408 5.541,3.212 8.35,4.687c3.014,1.582 5.554,4.151 5.841,7.692c0.073,0.891 -0.811,1.653 -1.65,1.653c-0.953,0 -1.578,-0.76 -1.65,-1.653Z" style="fill:#612516;fill-rule:nonzero;"/><path d="M204.793,1335.978c-24.985,-70.045 -40.148,-143.19 -45.132,-217.4c-0.143,-2.123 3.159,-2.115 3.301,0c4.965,73.925 20.128,146.752 45.014,216.522c0.716,2.007 -2.472,2.871 -3.183,0.878Z" style="fill:#612516;fill-rule:nonzero;"/><path d="M156.635,153.691c-2.798,32.855 -24.027,71.923 -24.027,71.923c86.32,52.773 112.939,24.416 112.033,18.169c0,0 -0.109,-26.806 3.064,-33.564c4.265,-9.086 8.476,-14.41 8.476,-14.41c22.085,11.996 42.544,-14.648 50.337,-34.372c1.249,-3.163 2.306,-6.49 3.192,-9.958c1.74,-6.817 2.68,-11.472 3.231,-19.206c0.093,-1.289 1.452,-3.326 2.831,-3.271l5.984,-0.397c4.247,-0.479 4.017,-3.934 1.584,-6.488c-7.105,-7.45 -13.589,-17.198 -15.668,-33.518c-4.905,-38.482 -21.412,-61.276 -21.412,-61.276c-30.07,-33.065 -96.136,-40.989 -137.825,3.761c-50.28,53.971 8.201,122.609 8.201,122.609Z" style="fill:#823e2e;fill-rule:nonzero;"/><path d="M268.529,41.062c-5.353,5.196 -10.109,10.936 -15.294,16.288c-5.991,6.184 -13.739,9.364 -22.248,10.1c-16.139,1.395 -32.076,-3.37 -48.215,-2.533c-17.045,0.884 -32.977,10.676 -42.628,24.712c-3.931,5.715 -6.347,12.068 -7.869,18.678c-7.073,-23.208 -7.491,-51.838 16.16,-77.225c41.689,-44.749 107.755,-36.825 137.825,-3.761c0,0 0.153,0.22 0.37,0.538c-6.559,3.244 -12.639,7.901 -18.101,13.203Z" style="fill:#6e3427;fill-rule:nonzero;"/><path d="M310.245,149.344c-0.271,0.967 -2.117,7.58 -2.429,8.536c-0.13,0.4 -0.406,1.154 -0.649,1.843c-0.229,0.646 -0.377,0.998 -0.377,0.998c-13.54,2.41 -18.064,-13.649 -18.064,-13.649c12.775,2.199 21.519,2.273 21.519,2.273Z" style="fill:#612516;fill-rule:nonzero;"/><path d="M299.357,92.956c3.447,-0.462 4.343,-5.412 0.075,-5.563c-7.947,-0.28 -33.243,7.564 -37.093,10.987c-3.983,3.543 24.476,-3.747 37.019,-5.424Z" style="fill:#612516;fill-rule:nonzero;"/><path d="M256.19,195.817c0,0 -3.307,4.573 -4.58,6.924c-0.89,1.645 -3.488,6.553 -3.488,6.553c-31.667,-11.641 -32.426,-45.494 -32.426,-45.494c23.317,30.512 40.494,32.018 40.494,32.018Z" style="fill:#612516;fill-rule:nonzero;"/><path d="M299.277,112.107c0.051,2.217 -1.37,4.051 -3.173,4.093c-1.803,0.042 -3.308,-1.724 -3.359,-3.941c-0.051,-2.217 1.37,-4.051 3.173,-4.093c1.803,-0.042 3.308,1.724 3.359,3.941Z" style="fill:#2e130c;"/><path d="M194.909,102.119c0.268,-0.364 0.927,-0.525 1.323,-0.173c1.971,1.75 3.518,3.806 4.297,6.276c0.837,2.653 0.597,5.414 -0.009,7.993c-0.27,1.147 -2.074,0.424 -1.806,-0.715c0.423,-1.799 0.579,-3.689 0.269,-5.556c-0.014,-0.002 -0.029,-0.006 -0.043,-0.008c-0.124,-0.025 -0.249,-0.048 -0.374,-0.066c-0.247,-0.038 -0.496,-0.064 -0.745,-0.075c-0.065,-0.002 -0.128,-0.003 -0.193,-0.005c-0.103,0.005 -0.205,0.01 -0.308,0.019c-0.218,0.019 -0.427,0.062 -0.64,0.103c-0.023,0.004 -0.011,0.001 -0.019,0.003c-0.024,0.007 -0.049,0.014 -0.073,0.022c-0.073,0.025 -0.144,0.05 -0.215,0.078c-0.141,0.057 -0.275,0.125 -0.409,0.195c-0.02,0.016 -0.046,0.028 -0.067,0.043c-0.063,0.048 -0.127,0.092 -0.188,0.14c-0.053,0.042 -0.104,0.087 -0.153,0.132c-0.036,0.032 -0.052,0.052 -0.065,0.066c-0.081,0.099 -0.165,0.193 -0.238,0.299c-0.042,0.062 -0.081,0.125 -0.12,0.189c-0.006,0.009 -0.011,0.019 -0.016,0.028c-0.051,0.134 -0.118,0.263 -0.165,0.4c-0.023,0.068 -0.083,0.213 -0.099,0.322c0.002,-0.002 0.008,-0.026 0.003,0.014c-0.004,0.037 -0.012,0.075 -0.017,0.113c-0.011,0.076 -0.019,0.153 -0.025,0.229c-0.011,0.134 -0.016,0.27 -0.014,0.406c0.001,0.032 0.01,0.161 0.011,0.198c0.004,0.032 0.008,0.069 0.01,0.082c0.019,0.149 0.047,0.296 0.081,0.442c0.034,0.148 0.088,0.291 0.124,0.438c-0.063,-0.253 -0.005,-0.018 0.025,0.055c0.027,0.067 0.055,0.132 0.086,0.197c0.07,0.15 0.146,0.296 0.231,0.44c0.037,0.063 0.079,0.123 0.116,0.185c-0.14,-0.233 0.006,0.002 0.044,0.053c0.313,0.421 0.329,0.979 -0.081,1.306c-0.365,0.292 -1.035,0.255 -1.347,-0.164c-0.561,-0.752 -0.963,-1.604 -1.119,-2.506c-0.278,-1.594 0.147,-3.216 1.329,-4.282c1.116,-1.007 2.644,-1.201 4.15,-1.022c-0.673,-1.755 -1.857,-3.322 -3.29,-4.593c-0.391,-0.348 -0.581,-0.873 -0.263,-1.305Z" style="fill:#612516;fill-rule:nonzero;"/><path d="M40.253,975.627c1.289,-36.923 3.215,-73.825 5.875,-110.675c5.154,-71.389 12.388,-246.292 66.643,-377.076c0,0 72.107,-57.116 92.647,-74.999c10.455,-9.103 20.032,-19.321 26.667,-31.595c7.225,-13.365 10.623,-28.316 12.954,-43.216c5.248,-33.549 7.955,-64.117 12.022,-97.828c0,0 27.436,6.874 34.775,19.976c15.291,58.994 29.801,122.9 36.867,183.576c5.673,48.722 5.878,97.777 4.813,146.77c1.347,67.376 8.602,133.952 18.818,200.774c11.592,75.833 15.432,152.67 17.746,229.285c1.25,41.399 0.699,88.554 0.378,129.971c-21.489,10.532 -75.318,19.048 -97.765,19.884c-32.012,1.194 -57.748,-18.742 -88.485,-23.189c-16.542,-2.393 -33.066,2.252 -49.63,0.244c-13.078,-1.586 -25.476,-6.533 -36.802,-13.146c-12.399,-7.238 -61.635,-35.482 -61.635,-35.482c0.125,-32.937 3.491,-105.427 4.112,-123.274Z" style="fill:#008751;fill-rule:nonzero;"/><path d="M148.472,171.26c0,-26.204 21.29,-47.525 47.456,-47.525c26.165,0 47.455,21.321 47.455,47.525c0,26.203 -21.29,47.524 -47.455,47.524c-26.166,0 -47.456,-21.321 -47.456,-47.524Zm6.89,0c0,22.401 18.196,40.624 40.566,40.624c22.369,0 40.565,-18.222 40.565,-40.624c0,-22.402 -18.196,-40.625 -40.565,-40.625c-22.37,0 -40.566,18.222 -40.566,40.625Z" style="fill:#823e2e;fill-rule:nonzero;"/><path d="M152.765,170.936c0,-23.343 18.963,-42.329 42.265,-42.329c23.308,0 42.271,18.987 42.271,42.329c0,23.342 -18.963,42.332 -42.271,42.332c-23.301,0 -42.265,-18.991 -42.265,-42.332Zm10.038,0c0,17.799 14.457,32.28 32.227,32.28c17.776,0 32.233,-14.481 32.233,-32.28c0,-17.799 -14.457,-32.277 -32.233,-32.277c-17.77,-0 -32.227,14.478 -32.227,32.277Z" style="fill:#f7a64f;fill-rule:nonzero;"/><path d="M209.68,123.834c11.285,3.875 20.978,11.748 26.856,22.184c6.893,12.238 9.849,27.333 4.755,40.704c-0.595,1.563 -3.131,0.885 -2.528,-0.699c4.849,-12.733 2.068,-27.011 -4.492,-38.68c-5.527,-9.832 -14.651,-17.325 -25.289,-20.977c-1.587,-0.545 -0.904,-3.082 0.698,-2.532Z" style="fill:#612516;fill-rule:nonzero;"/><path d="M233.724,203.339c-11.051,14.259 -31.858,18.96 -48.865,15.141c-16.21,-3.64 -29.578,-15.521 -35.566,-30.951c-0.612,-1.576 1.923,-2.259 2.529,-0.699c5.665,14.596 18.466,25.671 33.735,29.118c16.171,3.65 35.839,-0.951 46.314,-14.467c1.032,-1.333 2.877,0.537 1.854,1.857Z" style="fill:#612516;fill-rule:nonzero;"/><path d="M186.523,125.791c-13.282,2.413 -25.421,9.897 -31.824,22.045c-0.789,1.495 -3.053,0.17 -2.264,-1.325c6.693,-12.697 19.492,-20.725 33.392,-23.251c1.649,-0.3 2.357,2.23 0.697,2.531Z" style="fill:#612516;fill-rule:nonzero;"/><path d="M203.873,93.309c-3.178,-4.484 -9.97,-6.323 -15.133,-5.006c-5.394,1.376 -9.088,5.932 -9.562,11.455c-0.474,5.506 2.019,10.718 5.512,14.826c2.552,3.001 5.81,6.99 2.574,10.774c-0.986,1.152 -2.643,-0.52 -1.662,-1.665c2.371,-2.773 -1.577,-6.188 -3.169,-8.16c-1.757,-2.177 -3.228,-4.549 -4.253,-7.16c-1.933,-4.925 -1.991,-10.696 0.655,-15.383c5.471,-9.69 20.771,-9.757 27.069,-0.87c0.877,1.238 -1.161,2.415 -2.031,1.189Z" style="fill:#612516;fill-rule:nonzero;"/><path d="M208.942,126.358c-3.073,-1.476 -3.197,-5.929 -2.739,-8.81c0.566,-3.566 2.345,-6.793 3.069,-10.322c0.304,-1.483 2.571,-0.855 2.267,0.626c-0.619,3.02 -2.001,5.798 -2.75,8.78c-0.354,1.411 -0.562,2.88 -0.4,4.336c0.137,1.234 0.529,2.777 1.739,3.358c1.364,0.654 0.173,2.686 -1.187,2.033Z" style="fill:#612516;fill-rule:nonzero;"/><path d="M102.785,433.148c5.499,-26.382 12.738,-52.259 21.435,-77.759c9.193,-26.954 15.124,-53.19 12.208,-81.859c-0.215,-2.115 3.088,-2.1 3.301,0c2.833,27.86 -2.411,53.61 -11.352,79.883c-9.009,26.476 -16.699,53.221 -22.408,80.614c-0.434,2.081 -3.617,1.201 -3.184,-0.878Z" style="fill:#612516;fill-rule:nonzero;"/><path d="M179.198,432.887c-11.294,-4.194 -18.287,-14.473 -23.034,-25.08c-5.743,-12.83 -8.851,-26.641 -9.314,-40.684c-0.071,-2.128 3.23,-2.126 3.301,0c0.427,12.924 3.155,25.724 8.254,37.619c4.372,10.198 10.76,20.906 21.67,24.958c1.974,0.733 1.12,3.929 -0.877,3.187Z" style="fill:#612516;fill-rule:nonzero;"/><path d="M178.177,764.065c-7.008,49.008 -11.132,98.371 -12.394,147.863c-0.054,2.124 -3.355,2.132 -3.301,-0c1.27,-49.791 5.461,-99.438 12.512,-148.741c0.3,-2.098 3.482,-1.205 3.183,0.878Z" style="fill:#005232;fill-rule:nonzero;"/><path d="M55.702,1005.898c0.365,35.069 0.975,70.13 1.649,105.182c2.162,1.242 4.406,2.532 6.671,3.835c-0.695,-35.695 -1.328,-71.402 -1.715,-107.115c29.424,8.278 59.031,15.884 88.876,22.403c-0.798,39.021 -0.435,78.152 1.539,117.526c2.195,-0.136 4.389,-0.294 6.582,-0.457c-1.931,-38.756 -2.302,-77.28 -1.545,-115.693c18.673,3.974 37.426,7.575 56.293,10.597c32.467,5.201 65.06,8.558 97.811,3.668c1.38,-0.205 2.738,-0.511 4.113,-0.738c3.677,39.979 4.953,79.933 1.31,119.897c2.242,-0.396 4.481,-0.808 6.725,-1.239c3.501,-39.885 2.26,-79.839 -1.425,-119.847c16.139,-3.073 31.958,-7.435 47.777,-11.813c-0.051,-2.304 -0.108,-4.59 -0.17,-6.864c-11.511,3.136 -23.043,6.294 -34.753,9.031c-4.548,1.062 -9.041,1.883 -13.531,2.674c-1.796,-18.201 -4.02,-36.41 -6.481,-54.629c-2.633,-19.481 -5.184,-38.842 -7.565,-58.161c19.089,-1.89 38.219,-5.077 57.393,-9.475c-0.147,-2.244 -0.271,-4.49 -0.426,-6.735c-19.309,4.435 -38.577,7.602 -57.812,9.499c-4.788,-39.659 -8.52,-79.152 -10.076,-118.957c18.497,-1.642 36.975,-4.006 55.416,-6.981c-0.009,-0.057 -0.016,-0.114 -0.024,-0.171c-0.323,-2.113 -0.616,-4.225 -0.933,-6.337c-18.217,2.95 -36.47,5.295 -54.738,6.925c-0.782,-23.981 -0.785,-48.081 0.444,-72.437c0.74,-14.658 1.681,-29.321 2.683,-43.986c12.68,-1.412 25.345,-3.039 37.992,-4.774c-0.182,-2.182 -0.375,-4.363 -0.547,-6.546c-12.308,1.694 -24.639,3.287 -36.993,4.68c2.483,-35.691 5.236,-71.399 6.523,-107.116c9.202,-1.798 18.281,-3.873 27.231,-6.183c0.011,-2.315 0.001,-4.63 0.001,-6.946c-8.877,2.272 -17.877,4.289 -26.976,6.056c1.014,-33.437 0.619,-66.881 -2.663,-100.321c-0.115,-1.17 -0.3,-2.327 -0.42,-3.497c7.822,-5.925 15.026,-12.763 23.12,-19.672c-0.263,-2.002 -0.504,-3.993 -0.782,-6.001c-2.582,2.448 -5.211,4.997 -8.011,7.654c-4.97,4.717 -9.964,8.657 -15.036,12.126c-3.618,-32.196 -9.46,-64.015 -16.649,-95.566c8.152,-3.297 16.07,-7.284 23.821,-11.697c-0.483,-2.224 -0.948,-4.455 -1.44,-6.675c-7.737,4.514 -15.674,8.544 -23.843,11.901c-6.862,-29.377 -14.75,-58.536 -22.971,-87.564c5.403,-2.069 10.724,-4.422 16.001,-6.917c-2.57,-1.393 -5.195,-2.604 -7.707,-3.646c-3.338,1.484 -6.692,2.911 -10.075,4.225c-0.813,-2.855 -1.635,-5.699 -2.451,-8.551c-0.511,-0.139 -0.854,-0.228 -0.854,-0.228c-0.727,6.022 -1.379,11.858 -2.041,17.715c0.308,-0.105 0.623,-0.183 0.93,-0.289c8.224,29.06 16.146,58.254 22.986,87.667c-12.061,4.467 -24.524,7.656 -37.253,9.574c-0.547,2.276 -1.105,4.546 -1.764,6.789c13.84,-1.887 27.388,-5.171 40.481,-9.954c7.269,32.056 13.157,64.379 16.684,97.077c-16.705,9.728 -34.762,13.673 -57.301,13.744c-16.52,0.052 -32.9,-0.971 -49.156,-2.799c-0.204,-11.29 -0.468,-22.585 -0.714,-33.879c-2.068,1.702 -4.242,3.483 -6.486,5.315c0.196,9.284 0.42,18.571 0.588,27.851c-9.76,-1.245 -19.45,-2.921 -29.106,-4.792c-2.263,1.818 -4.487,3.601 -6.691,5.366c11.9,2.452 23.855,4.604 35.899,6.128c0.575,33.785 0.797,67.545 0.445,101.28c-6.877,0.264 -13.721,0.499 -20.48,0.69c-25.948,0.737 -51.655,-0.313 -76.918,-3.493c-0.586,2.173 -1.145,4.357 -1.713,6.537c21.11,2.718 42.53,3.96 64.122,3.828c11.427,-0.069 23.105,-0.259 34.917,-0.609c-0.439,33.658 -1.522,67.291 -3.584,100.893c-37.191,-0.994 -74.07,-5.326 -110.244,-14.298c0.958,-13.166 2.059,-26.322 3.218,-39.474c-4.681,23.288 -8.498,46.486 -11.654,69.003c-1.758,28.23 -3.237,56.478 -4.254,84.752c-1.721,-0.403 -3.429,-0.882 -5.149,-1.297c-0.199,2.253 -0.387,4.468 -0.576,6.679c1.836,0.442 3.66,0.949 5.498,1.377c-1.279,37.543 -2.029,75.115 -2.308,112.705c-3.661,-0.752 -7.337,-1.538 -10.999,-2.297c-0.139,2.217 -0.282,4.432 -0.415,6.65c3.791,0.784 7.599,1.599 11.388,2.377c-0.198,32.632 -0.088,65.272 0.224,97.913c-5.388,-1.539 -10.745,-3.183 -16.122,-4.76c-0.09,2.171 -0.183,4.441 -0.281,6.827c5.493,1.61 10.964,3.292 16.47,4.861Zm124.859,-324.529c-2.057,31.566 -4.973,63.108 -9.06,94.622c-0.71,5.474 -1.324,10.934 -2.006,16.404c-35.284,-2.836 -70.361,-8.179 -105.032,-15.984c1.292,-36.462 3.143,-72.892 5.705,-109.275c36.265,8.883 73.17,13.223 110.392,14.233Zm6.596,0.094c35.194,0.601 70.627,-1.523 106.013,-5.273c-0.991,14.433 -1.936,28.864 -2.665,43.295c-1.236,24.5 -1.266,48.778 -0.54,72.961c-38.027,3.05 -76.083,3.14 -113.928,0.431c0.702,-5.631 1.334,-11.25 2.065,-16.886c4.084,-31.482 6.998,-62.993 9.055,-94.528Zm4.009,-114.703c0.345,-33.347 0.13,-66.719 -0.434,-100.116c20.603,2.292 41.383,3.126 62.247,2.293c19.698,-0.787 33.221,-6.14 44.77,-13.701c0.661,6.738 1.255,13.486 1.699,20.257c1.76,26.826 1.742,53.631 0.905,80.424c-35.945,6.476 -73.162,9.314 -109.188,10.843Zm102.459,102.814c-35.383,3.797 -70.874,5.981 -106.123,5.397c2.07,-33.709 3.154,-67.448 3.592,-101.213c36.037,-1.265 73.25,-4.207 109.065,-10.727c-1.315,35.533 -4.05,71.042 -6.534,106.542Zm6.583,248.584c-45.646,3.853 -91.125,1.206 -136.621,-4.778c2.989,-37.948 6.991,-75.904 11.649,-113.952c38.179,2.738 76.575,2.652 114.933,-0.407c1.449,39.816 5.125,79.387 10.039,119.137Zm-142.326,106.649c0.821,-35 2.551,-69.92 5.197,-104.82c45.931,6.042 91.831,8.708 137.924,4.799c1.289,10.164 2.643,20.341 4.061,30.542c3.834,27.584 7.556,55.144 10.269,82.69c-38.015,5.648 -74.401,2.193 -113.244,-4.542c-14.803,-2.567 -29.525,-5.529 -44.206,-8.669Zm-0.819,-112.313c-31.655,-4.382 -63.331,-10.374 -95.071,-16.829c0.26,-37.534 0.989,-75.049 2.247,-112.536c34.485,7.701 69.367,12.998 104.453,15.821c-4.646,37.911 -8.638,75.733 -11.63,113.545Zm-95.094,-10.101c31.585,6.411 63.091,12.35 94.566,16.708c-2.647,34.729 -4.386,69.477 -5.229,104.303c-29.91,-6.566 -59.582,-14.195 -89.069,-22.508c-0.328,-32.837 -0.453,-65.675 -0.268,-98.504Z" style="fill:#006b40;fill-rule:nonzero;"/><path d="M0.001,506.688c-0.082,16.799 5.64,30.501 21.746,38.524c46.195,23.012 242.759,32.917 289.85,38.708c4.642,4.788 9.134,9.718 13.992,14.31c6.882,6.506 14.767,11.616 23.773,14.644c10.017,3.367 19.555,2.586 29.902,2.778c4.984,0.093 7.694,-0.598 7.323,5.539c-0.145,2.406 -0.935,5.046 -1.609,7.349c-1.662,5.676 -4.828,8.876 -7.471,13.833c-2.161,4.055 -2.062,10.438 3.557,11.369c6.302,1.044 13.651,-6.606 17.263,-10.851c3.896,-4.579 6.691,-9.822 8.455,-15.465c0.389,0.014 0.789,-0.138 1.132,-0.54c7.86,-9.203 1.86,-21.071 -2.23,-30.581c-5.549,-12.899 -11.929,-25.442 -19.086,-37.519c-2.921,-4.931 -5.908,-12.1 -10.55,-15.652c-4.285,-3.278 -62.603,-11.019 -63.954,-11.189c-81.819,-10.275 -142.348,-37.672 -223.568,-50.973c16.323,-47.195 28.044,-95.815 35.011,-145.274c0.66,-0.166 15.139,-122.432 15.139,-122.432c-20.308,19.57 -52.567,12.504 -70.61,27.832c-38.592,32.785 -32.139,101.647 -36.822,125.684c-4.604,23.637 -12.23,46.529 -18.774,69.662c-6.438,22.763 -12.354,46.429 -12.469,70.243Z" style="fill:#823e2e;fill-rule:nonzero;"/><path d="M88.132,483.626c-11.146,2.282 -21.329,8.576 -28.191,17.697c-1.263,1.679 -4.13,0.033 -2.85,-1.668c7.377,-9.807 18.125,-16.753 30.163,-19.216c2.073,-0.425 2.961,2.761 0.878,3.187Z" style="fill:#612516;fill-rule:nonzero;"/><path d="M404.46,625.792c1.42,-7.214 2.142,-14.075 -2.278,-20.413c-3.771,-5.408 -9.518,-9.319 -14.785,-13.123c-11.643,-8.41 -23.893,-15.943 -36.613,-22.604c-1.884,-0.987 -0.217,-3.84 1.666,-2.855c14.305,7.492 28.04,16.082 40.949,25.796c4.944,3.72 10.029,7.807 13.019,13.354c3.557,6.598 2.617,13.662 1.225,20.724c-0.411,2.084 -3.594,1.202 -3.183,-0.88Z" style="fill:#612516;fill-rule:nonzero;"/><path d="M309.233,582.482c-2.877,-7.946 -3.913,-16.507 -3,-24.909c0.227,-2.093 3.53,-2.116 3.301,0c-0.885,8.151 0.091,16.322 2.882,24.031c0.726,2.003 -2.463,2.866 -3.183,0.878Z" style="fill:#612516;fill-rule:nonzero;"/><path d="M84.401,300.012c6.998,0 7.01,10.893 0,10.893c-6.999,0 -7.01,-10.893 0,-10.893Z" style="fill:#612516;fill-rule:nonzero;"/><path d="M75.688,339.137c6.998,0 7.01,10.893 0,10.893c-6.998,0 -7.01,-10.893 0,-10.893Z" style="fill:#612516;fill-rule:nonzero;"/><path d="M66.245,374.169c6.998,0 7.01,10.893 0,10.893c-6.998,0 -7.01,-10.893 0,-10.893Z" style="fill:#612516;fill-rule:nonzero;"/><path d="M56.486,416.729c6.998,0 7.01,10.893 0,10.893c-6.998,0 -7.01,-10.893 0,-10.893Z" style="fill:#612516;fill-rule:nonzero;"/><path d="M93.823,256.14c6.998,0 7.009,10.892 0,10.892c-6.999,0 -7.01,-10.892 0,-10.892Z" style="fill:#612516;fill-rule:nonzero;"/><path d="M45.98,462.134c6.998,0 7.01,10.893 0,10.893c-6.999,0 -7.011,-10.893 0,-10.893Z" style="fill:#612516;fill-rule:nonzero;"/><path d="M273.928,333.589c7.095,28.191 7.061,57.702 -0.102,85.876c-0.523,2.06 -3.708,1.187 -3.183,-0.879c7.018,-27.608 7.054,-56.494 0.102,-84.118c-0.52,-2.064 2.663,-2.944 3.183,-0.879Z" style="fill:#005232;fill-rule:nonzero;"/><path d="M256.703,1164.07c-15.589,-143.15 -20.384,-287.418 -14.112,-431.284c1.785,-40.922 4.489,-81.799 8.027,-122.605c0.183,-2.104 3.486,-2.123 3.301,0c-12.439,143.458 -14.065,287.797 -4.634,431.49c2.683,40.873 6.285,81.679 10.719,122.399c0.23,2.112 -3.073,2.096 -3.301,0Z" style="fill:#005232;fill-rule:nonzero;"/><path d="M278.628,591.548c1.652,97.594 2.57,195.2 2.753,292.808c0.004,2.127 -3.297,2.131 -3.301,0c-0.183,-97.608 -1.1,-195.214 -2.753,-292.808c-0.036,-2.128 3.264,-2.129 3.301,0Z" style="fill:#005232;fill-rule:nonzero;"/><path d="M285.34,952.816c2.368,36.211 6.822,72.239 13.351,107.933c0.38,2.079 -2.8,2.972 -3.183,0.878c-6.581,-35.983 -11.081,-72.307 -13.469,-108.812c-0.139,-2.124 3.163,-2.115 3.301,0Z" style="fill:#005232;fill-rule:nonzero;"/><path d="M190.902,1142.966c-9.424,-99.539 -10.799,-199.692 -4.11,-299.452c0.141,-2.112 3.443,-2.128 3.3,0c-6.687,99.76 -5.313,199.913 4.111,299.452c0.201,2.117 -3.102,2.104 -3.301,0Z" style="fill:#005232;fill-rule:nonzero;"/><path d="M190.682,789.289c0.459,-42.893 3.205,-85.717 8.227,-128.317c0.245,-2.086 3.549,-2.112 3.301,0c-5.022,42.6 -7.768,85.424 -8.227,128.317c-0.023,2.126 -3.324,2.131 -3.301,0Z" style="fill:#005232;fill-rule:nonzero;"/><path d="M131.06,1143.913c-1.91,-59.99 0.465,-120.003 7.109,-179.654c0.233,-2.091 3.537,-2.115 3.301,0c-6.644,59.651 -9.019,119.665 -7.109,179.654c0.068,2.128 -3.233,2.125 -3.301,0Z" style="fill:#005232;fill-rule:nonzero;"/><path d="M68.819,1110.623c1.35,-83.451 5.48,-166.831 12.387,-250.005c0.175,-2.105 3.477,-2.124 3.3,-0c-6.906,83.174 -11.036,166.554 -12.386,250.005c-0.034,2.125 -3.335,2.131 -3.301,0Z" style="fill:#005232;fill-rule:nonzero;"/><path d="M107.317,782.581c-5.033,62.637 -7.267,125.453 -6.697,188.29c0.019,2.128 -3.282,2.13 -3.301,-0c-0.57,-62.837 1.664,-125.653 6.697,-188.29c0.169,-2.106 3.471,-2.124 3.301,0Z" style="fill:#005232;fill-rule:nonzero;"/><path d="M332.18,1020.299c2.689,44.406 9.443,88.424 20.173,131.593c0.514,2.064 -2.669,2.945 -3.183,0.878c-10.801,-43.45 -17.585,-87.777 -20.291,-132.472c-0.128,-2.125 3.173,-2.117 3.301,0Z" style="fill:#005232;fill-rule:nonzero;"/><path d="M278.747,524.796c-1.098,-23.082 -0.695,-46.199 1.205,-69.229c0.175,-2.105 3.476,-2.124 3.301,0c-1.901,23.03 -2.303,46.147 -1.205,69.229c0.101,2.127 -3.2,2.122 -3.301,0Z" style="fill:#005232;fill-rule:nonzero;"/><path d="M257.29,520.497c-0.566,-8.742 -0.536,-17.508 0.09,-26.246c0.15,-2.11 3.453,-2.126 3.301,-0c-0.626,8.738 -0.656,17.504 -0.09,26.246c0.137,2.124 -3.165,2.116 -3.301,0Z" style="fill:#005232;fill-rule:nonzero;"/><path d="M277.744,248.15c8.036,30.658 14.675,61.66 19.901,92.921c0.348,2.081 -2.832,2.976 -3.183,0.879c-5.226,-31.262 -11.865,-62.264 -19.901,-92.922c-0.54,-2.059 2.644,-2.938 3.183,-0.878Z" style="fill:#005232;fill-rule:nonzero;"/><path d="M300.105,360.758c0.386,6.144 0.771,12.288 1.157,18.433c0.133,2.125 -3.168,2.117 -3.301,0c-0.386,-6.144 -0.771,-12.288 -1.157,-18.433c-0.133,-2.125 3.168,-2.117 3.301,0Z" style="fill:#005232;fill-rule:nonzero;"/><path d="M278.56,429.994c-5.507,19.667 -17.664,36.98 -34.203,48.909c-1.726,1.245 -3.377,-1.62 -1.667,-2.854c15.827,-11.416 27.424,-28.139 32.687,-46.934c0.572,-2.045 3.758,-1.176 3.183,0.878Z" style="fill:#005232;fill-rule:nonzero;"/><path d="M240.685,468.75c-12.569,10.784 -24.726,22.042 -36.442,33.749c-1.506,1.504 -3.841,-0.833 -2.334,-2.337c11.716,-11.708 23.873,-22.966 36.442,-33.749c1.605,-1.377 3.951,0.95 2.334,2.337Z" style="fill:#005232;fill-rule:nonzero;"/><path d="M187.217,504.013c37.065,10.228 73.529,20.557 115.295,26.59c-1.809,17.316 -3.45,34.662 -7.078,51.648c-27.372,-2.526 -72.662,-5.777 -119.088,-10.246c1.714,-22.948 4.808,-45.747 10.871,-67.991Z" style="fill:#ffa600;fill-rule:nonzero;"/><path d="M295.32,530.987c-1.412,16.491 -3.753,32.888 -7.018,49.114c-0.419,2.083 -3.602,1.202 -3.183,-0.879c3.207,-15.939 5.512,-32.035 6.9,-48.235c0.18,-2.104 3.483,-2.123 3.3,0Z" style="fill:#eb7d00;fill-rule:nonzero;"/><path d="M285.481,529.367c-2.237,16.714 -4.797,33.382 -7.696,49.994c-0.364,2.092 -3.546,1.205 -3.183,-0.878c2.848,-16.321 5.38,-32.694 7.578,-49.115c0.279,-2.077 3.583,-2.105 3.301,0Z" style="fill:#eb7d00;fill-rule:nonzero;"/><path d="M275.095,528.307c-3.059,16.749 -5.983,33.523 -8.773,50.319c-0.348,2.094 -3.529,1.206 -3.183,-0.878c2.79,-16.797 5.714,-33.57 8.773,-50.319c0.382,-2.09 3.563,-1.204 3.183,0.878Z" style="fill:#eb7d00;fill-rule:nonzero;"/><path d="M267.094,525.855c-2.816,17.213 -5.633,34.424 -8.449,51.636c-0.343,2.094 -3.524,1.205 -3.183,-0.878c2.816,-17.212 5.633,-34.424 8.449,-51.635c0.342,-2.094 3.524,-1.206 3.183,0.878Z" style="fill:#eb7d00;fill-rule:nonzero;"/><path d="M257.29,524.217c-4.025,17.183 -7.092,34.574 -9.154,52.102c-0.245,2.088 -3.549,2.112 -3.301,0c2.097,-17.823 5.179,-35.508 9.273,-52.98c0.485,-2.07 3.668,-1.194 3.183,0.878Z" style="fill:#eb7d00;fill-rule:nonzero;"/><path d="M248.475,521.855c-4.418,17.88 -8.284,35.891 -11.59,54.009c-0.381,2.09 -3.563,1.205 -3.183,-0.878c3.307,-18.119 7.172,-36.129 11.589,-54.009c0.511,-2.064 3.695,-1.19 3.184,0.878Z" style="fill:#eb7d00;fill-rule:nonzero;"/><path d="M237.761,519.639c-4.908,18.356 -9.07,36.899 -12.478,55.591c-0.382,2.09 -3.563,1.205 -3.183,-0.879c3.409,-18.692 7.571,-37.236 12.478,-55.591c0.549,-2.053 3.734,-1.182 3.183,0.878Z" style="fill:#eb7d00;fill-rule:nonzero;"/><path d="M227.212,516.751c-4.291,18.928 -7.748,38.031 -10.362,57.262c-0.285,2.099 -3.465,1.205 -3.183,-0.878c2.613,-19.231 6.07,-38.335 10.362,-57.262c0.469,-2.073 3.653,-1.196 3.183,0.879Z" style="fill:#eb7d00;fill-rule:nonzero;"/><path d="M217.008,514.066c-2.74,12.828 -4.959,25.764 -6.624,38.777c-0.265,2.08 -3.57,2.108 -3.301,0c1.702,-13.307 3.941,-26.536 6.742,-39.655c0.444,-2.079 3.627,-1.2 3.183,0.878Z" style="fill:#eb7d00;fill-rule:nonzero;"/><path d="M209.487,559.123c-0.723,4.685 -1.374,9.381 -1.95,14.086c-0.108,0.886 -0.68,1.653 -1.65,1.653c-0.807,0 -1.759,-0.761 -1.65,-1.653c0.613,-4.998 1.301,-9.988 2.067,-14.964c0.136,-0.882 1.243,-1.371 2.031,-1.154c0.941,0.26 1.289,1.147 1.153,2.033Z" style="fill:#eb7d00;fill-rule:nonzero;"/><path d="M207.048,511.452c-4.825,19.751 -8.325,39.793 -10.445,60.016c-0.22,2.094 -3.523,2.117 -3.301,0c2.151,-20.516 5.668,-40.856 10.563,-60.894c0.505,-2.065 3.688,-1.191 3.183,0.878Z" style="fill:#eb7d00;fill-rule:nonzero;"/><path d="M197.549,508.95c-5.483,20.163 -8.919,40.8 -10.241,61.657c-0.134,2.113 -3.435,2.128 -3.301,0c1.34,-21.144 4.8,-42.092 10.359,-62.535c0.557,-2.05 3.743,-1.18 3.183,0.878Z" style="fill:#eb7d00;fill-rule:nonzero;"/><path d="M247.936,232.451c-6.058,5.494 -15.186,6.416 -23.034,6.812c-10.507,0.531 -21.185,-0.742 -31.502,-2.692c-19.458,-3.677 -40.249,-10.416 -54.979,-24.214c-1.555,-1.456 0.782,-3.79 2.334,-2.337c13.402,12.552 32.011,18.804 49.648,22.583c9.105,1.951 18.431,3.23 27.748,3.439c8.666,0.195 20.632,0.258 27.452,-5.929c1.571,-1.425 3.913,0.905 2.334,2.337Z" style="fill:#ed5b00;fill-rule:nonzero;"/><path d="M251.167,234.655c-13.422,18.164 -39.791,17.619 -59.982,14.272c-22.579,-3.743 -43.657,-14.189 -60.467,-29.7c-1.565,-1.445 0.773,-3.778 2.335,-2.337c15.027,13.866 33.507,23.475 53.487,27.796c19.575,4.233 48.447,6.338 61.777,-11.698c1.25,-1.691 4.115,-0.045 2.85,1.668Z" style="fill:#ed5b00;fill-rule:nonzero;"/><path d="M253.886,237.037c-6.115,9.238 -14.041,17.366 -24.455,21.603c-12.634,5.14 -27.068,4.69 -40.323,2.743c-25.791,-3.787 -50.98,-16.094 -67.163,-36.948c-1.288,-1.66 1.032,-4.016 2.334,-2.337c14.45,18.62 35.966,30.104 58.8,34.871c12.548,2.619 26.51,3.805 39.069,0.594c12.52,-3.202 21.884,-11.612 28.888,-22.193c1.169,-1.765 4.029,-0.111 2.851,1.668Z" style="fill:#ed5b00;fill-rule:nonzero;"/><path d="M250.571,235.008c-14.82,13.723 -39.053,13.461 -57.69,10.036c-21.622,-3.974 -41.378,-14.476 -58.626,-27.858c-1.678,-1.301 0.674,-3.625 2.334,-2.337c15.795,12.254 33.788,21.913 53.404,26.246c18.243,4.028 43.52,5.21 58.245,-8.424c1.558,-1.443 3.897,0.89 2.334,2.337Z" style="fill:#ed5b00;fill-rule:nonzero;"/><path d="M253.288,237.446c-18.332,15.215 -42.116,20.861 -65.303,16.534c-23.367,-4.361 -46.865,-12.762 -62.377,-31.701c-1.338,-1.632 0.985,-3.983 2.334,-2.337c14.207,17.344 35.192,25.543 56.587,29.995c11.752,2.445 23.008,3.546 34.775,0.563c11.512,-2.917 22.466,-7.77 31.65,-15.392c1.624,-1.348 3.972,0.979 2.334,2.337Z" style="fill:#ed5b00;fill-rule:nonzero;"/><path d="M295.047,183.315c-2.523,3.44 -5.261,6.76 -8.644,9.39c-0.558,0.434 -1.309,0.545 -1.854,0c-0.451,-0.453 -0.562,-1.42 0,-1.857c3.209,-2.494 5.866,-5.629 8.234,-8.858c0.418,-0.571 1.138,-0.856 1.794,-0.471c0.562,0.33 0.891,1.221 0.47,1.796Z" style="fill:#612516;fill-rule:nonzero;"/><path d="M247.949,214.44c-0.174,0.579 -0.301,1.17 -0.384,1.768c0.015,-0.116 0.032,-0.233 0.047,-0.349c-0.048,0.363 -0.08,0.727 -0.094,1.093c-0.014,0.345 -0.137,0.68 -0.385,0.928c-0.227,0.228 -0.601,0.399 -0.927,0.385c-0.339,-0.015 -0.69,-0.126 -0.928,-0.385c-0.229,-0.251 -0.398,-0.577 -0.384,-0.928c0.044,-1.083 0.214,-2.171 0.525,-3.211c0.096,-0.32 0.312,-0.614 0.603,-0.784c0.281,-0.165 0.696,-0.235 1.01,-0.132c0.317,0.103 0.623,0.3 0.783,0.604c0.163,0.309 0.234,0.669 0.132,1.012Z" style="fill:#612516;fill-rule:nonzero;"/><path d="M402.981,594.424c-12.408,-11.999 -26.157,-22.494 -40.996,-31.301c-1.825,-1.084 -0.167,-3.942 1.666,-2.855c15.07,8.944 29.061,19.633 41.664,31.818c1.53,1.481 -0.806,3.816 -2.335,2.338Z" style="fill:#612516;fill-rule:nonzero;"/><path d="M403.164,594.303c-6.335,-11.206 -11.838,-22.775 -17.581,-34.286c-1.312,-2.631 -2.676,-5.237 -4.159,-7.777c-1.512,-2.591 -3.253,-6.355 -5.839,-7.997c-2.407,-1.527 -6.094,-1.628 -8.836,-2.168c-3.475,-0.685 -6.949,-1.37 -10.424,-2.055c-2.082,-0.41 -1.2,-3.597 0.877,-3.187c3.476,0.685 6.95,1.37 10.424,2.055c2.872,0.566 6.222,0.797 8.877,2.105c2.473,1.219 3.989,3.593 5.458,5.832c1.88,2.866 3.559,5.859 5.138,8.901c6.379,12.283 12.094,24.847 18.915,36.91c1.048,1.853 -1.803,3.521 -2.851,1.668Z" style="fill:#612516;fill-rule:nonzero;"/><path d="M389.84,568.304c-5.553,-4.576 -11.361,-8.829 -17.388,-12.759c-1.772,-1.157 -0.12,-4.02 1.667,-2.855c6.261,4.084 12.285,8.522 18.056,13.277c0.689,0.567 0.586,1.749 0,2.337c-0.681,0.682 -1.644,0.569 -2.335,0Z" style="fill:#612516;fill-rule:nonzero;"/><path d="M406.089,588.618c2.302,-17.381 8.571,-33.307 15.348,-49.348c0.825,-1.953 3.669,-0.27 2.851,1.668c-6.528,15.451 -12.681,30.935 -14.898,47.68c-0.275,2.077 -3.579,2.105 -3.301,-0Z" style="fill:#612516;fill-rule:nonzero;"/><path d="M395.789,579.65c0.679,-15.518 7.344,-29.687 12.21,-44.183c0.673,-2.006 3.862,-1.145 3.183,0.878c-4.759,14.178 -11.428,28.128 -12.092,43.305c-0.093,2.119 -3.394,2.131 -3.301,0Z" style="fill:#612516;fill-rule:nonzero;"/><path d="M388.21,565.232c1.136,-11.522 3.601,-22.852 7.423,-33.781c0.698,-1.995 3.887,-1.136 3.183,0.878c-3.722,10.641 -6.198,21.681 -7.305,32.903c-0.207,2.098 -3.51,2.119 -3.301,0Z" style="fill:#612516;fill-rule:nonzero;"/><path d="M385.16,518.726c-0.917,9.943 -1.314,19.927 -1.817,29.896c-0.106,2.117 -3.408,2.13 -3.3,0c0.502,-9.969 0.898,-19.953 1.816,-29.896c0.194,-2.101 3.496,-2.121 3.301,0Z" style="fill:#612516;fill-rule:nonzero;"/><path d="M395.211,513.475c-0.645,-1.162 -1.215,-2.256 -2.573,-2.489c-1.217,-0.21 -2.597,0.439 -3.673,1.236c-2.026,1.503 -3.504,4.076 -3.804,6.504c-0.11,0.886 -0.68,1.653 -1.65,1.653c-0.807,0 -1.761,-0.76 -1.65,-1.653c0.482,-3.894 2.505,-7.425 5.802,-9.611c1.754,-1.163 3.87,-1.755 5.956,-1.298c2.152,0.472 3.432,2.166 4.445,3.988c1.032,1.861 -1.817,3.53 -2.851,1.669Z" style="fill:#612516;fill-rule:nonzero;"/><path d="M383.553,520.527c-5.485,-0.057 -10.856,1.581 -15.354,4.736c-2.007,1.406 -3.885,3.229 -4.54,5.664c-0.686,2.549 -0.068,5.351 0.943,7.729c0.349,0.821 0.245,1.771 -0.592,2.261c-0.693,0.406 -1.908,0.233 -2.258,-0.592c-1.292,-3.039 -2.066,-6.296 -1.431,-9.595c0.598,-3.106 2.646,-5.585 5.081,-7.481c5.145,-4.005 11.65,-6.095 18.151,-6.028c2.123,0.021 2.128,3.327 0,3.306Z" style="fill:#612516;fill-rule:nonzero;"/><path d="M369.972,446.501c-10.786,-2.184 -22.129,-0.542 -31.868,4.582c-1.879,0.989 -3.549,-1.863 -1.666,-2.854c10.561,-5.557 22.721,-7.283 34.41,-4.916c2.08,0.422 1.2,3.608 -0.877,3.187Z" style="fill:#612516;fill-rule:nonzero;"/><path d="M196.492,1409.697c-4.484,35.948 -7.126,61.894 -6.4,67.919c-11.136,2.95 -22.808,4.285 -34.302,4.465c-7.2,0.112 -14.326,-0.668 -21.425,-1.7c-2.46,-15.061 -8.914,-39.791 -16.31,-70.162c26.097,3.217 52.423,3.97 78.437,-0.522Z" style="fill:#ffa600;fill-rule:nonzero;"/><path d="M188.66,1472.15c-17.581,3.252 -35.488,4.13 -53.298,2.536c-2.099,-0.188 -2.119,-3.496 0,-3.306c17.508,1.567 35.132,0.78 52.419,-2.418c2.076,-0.384 2.967,2.8 0.878,3.187Z" style="fill:#eb7d00;fill-rule:nonzero;"/><path d="M189.385,1463.403c-18.751,3.302 -37.819,4.089 -56.772,2.26c-2.096,-0.202 -2.117,-3.51 -0,-3.306c18.648,1.799 37.44,1.108 55.895,-2.142c2.076,-0.365 2.969,2.82 0.877,3.187Z" style="fill:#eb7d00;fill-rule:nonzero;"/><path d="M189.846,1453.796c-10.117,1.061 -20.268,1.762 -30.437,2.057c-9.783,0.284 -19.694,0.539 -29.367,-1.18c-2.087,-0.371 -1.203,-3.557 0.877,-3.187c9.731,1.729 19.804,1.34 29.641,1.026c9.784,-0.312 19.55,-1 29.286,-2.021c2.11,-0.221 2.095,3.085 0,3.305Z" style="fill:#eb7d00;fill-rule:nonzero;"/><path d="M191.172,1442.988c-20.924,1.92 -41.954,2.14 -62.913,0.659c-2.107,-0.15 -2.123,-3.456 0,-3.306c20.96,1.481 41.989,1.261 62.913,-0.659c2.115,-0.194 2.102,3.113 -0,3.306Z" style="fill:#eb7d00;fill-rule:nonzero;"/><path d="M192.143,1432.022c-10.826,0.82 -21.668,1.887 -32.519,2.32c-10.919,0.437 -21.817,-0.392 -32.683,-1.392c-2.098,-0.193 -2.118,-3.501 0,-3.306c10.865,1 21.765,1.836 32.683,1.393c10.85,-0.441 21.692,-1.501 32.519,-2.321c2.119,-0.161 2.108,3.146 0,3.306Z" style="fill:#eb7d00;fill-rule:nonzero;"/><path d="M193.381,1421.405c-23.515,1.995 -47.18,3.717 -70.692,0.761c-2.079,-0.261 -2.106,-3.57 0,-3.306c23.512,2.956 47.177,1.233 70.692,-0.761c2.116,-0.18 2.104,3.127 0,3.306Z" style="fill:#eb7d00;fill-rule:nonzero;"/></g></svg>