<?xml version="1.0" encoding="UTF-8" standalone="no"?><!DOCTYPE svg PUBLIC "-//W3C//DTD SVG 1.1//EN" "http://www.w3.org/Graphics/SVG/1.1/DTD/svg11.dtd"><svg width="100%" height="100%" viewBox="0 0 489 1632" version="1.1" xmlns="http://www.w3.org/2000/svg" xmlns:xlink="http://www.w3.org/1999/xlink" xml:space="preserve" xmlns:serif="http://www.serif.com/" style="fill-rule:evenodd;clip-rule:evenodd;stroke-linejoin:round;stroke-miterlimit:2;"><g><path d="M415.339,659.221c-29.952,-77.717 -27.098,-113.83 -9.269,-187.621c17.829,-73.792 53.488,-204.107 -77.733,-209.602c-4.278,-0.178 -71.321,-0.178 -75.599,0c-131.22,5.499 -95.562,135.81 -77.733,209.602c17.826,73.792 20.683,109.904 -9.273,187.621c-29.952,77.713 -17.113,124.816 -17.113,124.816c0,0 25.67,21.197 129.795,21.197c101.985,0 154.044,-21.197 154.044,-21.197c0,0 12.835,-47.099 -17.12,-124.816Z" style="fill:#ba5418;fill-rule:nonzero;"/><path d="M443.589,289.553c26.019,28.755 45.967,212.454 44.64,309.937c-1.33,97.486 -40.9,217.522 -40.9,217.522c0,0 -38.239,-84.223 -38.904,-198.952c-0.665,-114.729 38.999,-328.506 38.999,-328.506c0,0 -29.85,-28.755 -3.835,-0Z" style="fill:#ba5418;fill-rule:nonzero;"/><path d="M325.56,268.78c-24.899,9.073 -45.251,9.073 -69.91,0c0.716,-2.389 1.196,-4.774 1.676,-6.923c5.987,-24.59 5.747,-41.061 -0.72,-64.697l67.995,0c-5.507,18.62 -6.463,32.945 -3.591,50.372c0.96,6.445 2.395,13.368 4.551,21.248Z" style="fill:#ba5418;fill-rule:nonzero;"/><path d="M147.711,732.976c-14.929,104.021 39.995,436.25 46.367,451.492c6.372,15.245 54.615,-3.135 72.655,-72.331c18.044,-69.192 21.435,-303.325 13.038,-355.108c-8.397,-51.786 -118.367,-119.434 -132.06,-24.053Z" style="fill:#ba5418;fill-rule:nonzero;"/><path d="M181.287,1101.564c-3.646,103.561 56.908,455.95 58.806,477.637c1.563,17.837 26.022,13.611 26.738,-15.311c0.2,-8.04 15.597,-176.36 13.889,-249.596c-1.999,-85.804 -11.246,-170.013 -16.742,-205.52c-12.835,-82.958 -80.215,-77.467 -82.691,-7.209Z" style="fill:#ba5418;fill-rule:nonzero;"/><path d="M237.119,1554.767c0.334,18.87 3.417,23.677 -12.275,29.509c-15.692,5.836 -35.677,13.723 -41.991,18.707c-6.314,4.984 -1.109,14.901 12.202,13.274c13.311,-1.627 29.53,-10.189 36.851,-10.287c7.324,-0.098 37.574,0.961 38.396,-20.835c0.821,-21.795 -3.293,-33.905 -3.602,-42.616c-0.313,-8.714 -29.054,-6.872 -29.581,12.248Z" style="fill:#ba5418;fill-rule:nonzero;"/><path d="M432.63,732.976c14.929,104.021 -39.995,436.25 -46.367,451.492c-6.372,15.245 -54.615,-3.135 -72.658,-72.331c-18.044,-69.192 -21.435,-303.325 -13.038,-355.108c8.4,-51.786 118.371,-119.434 132.064,-24.053Z" style="fill:#ba5418;fill-rule:nonzero;"/><path d="M399.054,1101.564c3.649,103.561 -56.905,455.95 -58.806,477.637c-1.563,17.837 -26.022,13.611 -26.735,-15.311c-0.2,-8.04 -15.601,-176.36 -13.893,-249.596c2.003,-85.804 11.246,-170.013 16.742,-205.52c12.835,-82.958 80.215,-77.467 82.691,-7.209Z" style="fill:#ba5418;fill-rule:nonzero;"/><path d="M343.222,1554.767c-0.334,18.87 -3.417,23.677 12.275,29.509c15.692,5.836 35.677,13.723 41.994,18.707c6.314,4.984 1.105,14.901 -12.206,13.274c-13.311,-1.627 -29.53,-10.189 -36.851,-10.287c-7.321,-0.098 -37.574,0.961 -38.392,-20.835c-0.821,-21.795 3.293,-33.905 3.602,-42.616c0.305,-8.714 29.05,-6.872 29.577,12.248Z" style="fill:#ba5418;fill-rule:nonzero;"/><path d="M152.64,302.924c-25.684,47.523 -33.997,177.081 -51.863,210.729c-17.869,33.648 29.032,90.001 63.066,25.862c34.034,-64.139 52.001,-99.639 63.051,-181.608c11.043,-81.962 -50.932,-98.135 -74.254,-54.983Z" style="fill:#ba5418;fill-rule:nonzero;"/><path d="M100.777,513.653c-0.567,2.845 -62.619,155.945 -66.504,161.814c-3.886,5.872 -24.209,28.827 13.329,23.191c37.534,-5.633 94.704,-81.788 116.077,-156.213c21.37,-74.429 -54.396,-71.653 -62.902,-28.791Z" style="fill:#ba5418;fill-rule:nonzero;"/><path d="M447.42,845.338c-0.24,39.393 -1.2,79.261 -2.875,114.834c-0.72,15.757 -1.436,30.799 -2.395,44.645c-1.916,25.068 -4.071,46.077 -6.703,60.163c-3.351,18.142 -8.378,45.838 -13.885,77.83c-2.875,16.474 -5.747,34.38 -8.858,52.525c-18.196,106.001 -38.308,227.761 -38.308,227.761c0,0 -29.926,-16.474 -61.528,-43.692c-8.858,-7.641 -21.788,-13.607 -35.673,-18.145c-10.77,-3.817 -22.264,-6.684 -32.801,-8.833c-12.929,-2.864 -24.659,-5.013 -32.562,-6.684c-6.227,-1.193 -10.294,-2.389 -10.534,-3.346c-0.476,-1.671 -8.378,-48.227 -18.436,-114.834c-1.436,-8.355 -2.632,-16.949 -4.067,-25.782c-5.747,-39.154 -12.213,-83.082 -18.436,-128.205c-1.196,-8.594 -2.392,-16.949 -3.351,-25.543c-6.227,-45.12 -11.733,-90.722 -16.041,-132.026c-0.96,-8.594 -1.912,-17.188 -2.632,-25.308c-5.027,-51.329 -7.902,-94.782 -6.463,-121.282c0.24,-6.209 0.716,-11.936 1.196,-17.667c0.716,-10.026 1.676,-19.338 2.875,-27.932c1.196,-8.594 2.395,-16.71 3.831,-24.111c11.494,-63.505 30.886,-89.526 33.038,-126.774c0.24,-2.149 0.24,-4.535 0.24,-7.162c0,-7.162 -0.24,-16.239 -1.196,-26.5c-4.551,-67.086 -23.463,-183.116 -18.916,-185.265c5.507,-2.389 135.749,-51.09 172.139,-98.838c0,0 47.167,2.867 90.498,31.992c20.108,13.607 25.855,34.616 24.899,63.265c0,11.218 -1.436,23.637 -3.111,37.005c-3.351,25.786 -8.618,55.628 -12.45,89.287c-2.392,21.012 -4.071,37.961 -5.267,52.047c-1.196,14.325 -1.676,25.547 -1.436,35.334c0.48,25.068 5.507,39.872 16.041,65.176c2.635,6.209 4.551,17.188 6.463,31.992c1.196,9.79 2.156,21.009 2.875,33.663c2.156,31.274 3.351,70.189 3.591,111.253c0.24,12.9 0.24,26.032 0.24,39.161Z" style="fill:#ba0000;fill-rule:nonzero;"/><path d="M277.197,1361.259c-10.77,-3.817 -22.264,-6.684 -32.801,-8.833c-12.929,-2.864 -24.659,-5.013 -32.562,-6.684c-6.227,-1.193 -10.294,-2.389 -10.534,-3.346c-0.476,-1.671 -8.378,-48.227 -18.436,-114.834c-1.436,-8.355 -2.632,-16.949 -4.067,-25.782c-5.747,-39.154 -12.213,-83.082 -18.436,-128.205c-1.196,-8.594 -2.392,-16.949 -3.351,-25.543c-6.227,-45.12 -11.734,-90.722 -16.041,-132.026c-0.96,-8.594 -1.912,-17.188 -2.632,-25.308c-5.027,-51.329 -7.902,-94.782 -6.463,-121.282c0.24,-6.209 0.716,-11.936 1.196,-17.667c0.716,-10.026 1.676,-19.338 2.875,-27.932c1.196,-8.594 2.395,-16.71 3.831,-24.111l41.42,29.364c18.669,221.081 71.822,494.202 96.002,632.19Z" style="fill:#7a2d00;fill-opacity:0.3;fill-rule:nonzero;"/><path d="M321.009,247.532c-18.193,9.073 -40.22,14.325 -63.684,14.325c5.987,-24.59 5.747,-41.061 -0.72,-64.697l67.995,0c-5.503,18.62 -6.463,32.941 -3.591,50.372Z" style="fill:#7a2d00;fill-opacity:0.5;fill-rule:nonzero;"/><path d="M296.502,14.576l-11.933,0c-37.287,0 -64.636,31.19 -64.636,71.921c0,40.731 1.494,62.638 4.973,79.91c3.479,17.268 10.937,28.871 18.647,39.955c3.849,5.542 25.419,19.639 46.981,19.639c21.566,0 43.132,-14.096 46.985,-19.639c7.71,-11.084 15.165,-22.687 18.647,-39.955c3.479,-17.272 4.973,-39.183 4.973,-79.91c0,-40.727 -27.345,-71.921 -64.636,-71.921Z" style="fill:#ba5418;fill-rule:nonzero;"/><path d="M447.42,845.338c0,-13.132 0,-26.261 -0.24,-39.154c-84.512,113.641 -194.406,190.992 -290.171,241.847c0.96,8.594 2.155,16.953 3.351,25.543c55.065,-28.65 114.921,-65.89 172.618,-113.638c43.335,-35.573 81.404,-73.77 114.442,-114.598Zm-268.624,356.445c1.436,8.833 2.632,17.428 4.067,25.782c43.096,-25.065 88.107,-55.146 131.678,-91.197c49.082,-40.586 91.698,-84.513 127.611,-131.547c0.96,-13.846 1.676,-28.885 2.395,-44.645c-74.937,109.582 -174.054,187.65 -265.752,241.608Zm264.792,-506.848c-0.716,-12.654 -1.676,-23.876 -2.875,-33.663c-92.174,110.774 -207.808,183.591 -302.377,229.429c0.72,8.116 1.676,16.714 2.632,25.308c64.883,-30.56 139.577,-73.534 210.687,-132.501c33.757,-27.935 64.403,-57.538 91.934,-88.573Zm-55.062,-264.052c16.997,-14.086 33.278,-28.65 48.839,-43.449c1.676,-13.368 3.111,-25.786 3.111,-37.005c-85.947,88.812 -185.788,149.453 -268.62,188.843c0.956,10.265 1.196,19.338 1.196,26.5c66.075,-30.795 142.452,-74.723 215.474,-134.889Zm29.686,133.218c-0.24,-9.787 0.24,-21.009 1.436,-35.334c-91.454,94.064 -198.234,156.141 -283.705,195.052c-1.196,8.594 -2.155,17.906 -2.875,27.932c70.39,-31.035 155.858,-77.59 237.018,-144.437c16.761,-13.846 33.041,-28.171 48.126,-43.214Zm-206.376,781.644c7.902,1.671 19.632,3.817 32.562,6.684c17.237,-12.415 34.717,-25.543 51.714,-39.629c44.052,-36.53 83.076,-75.68 116.593,-117.462c3.111,-18.145 5.983,-36.051 8.858,-52.525c-60.336,86.185 -135.509,152.556 -209.727,202.932Z" style="fill:#690000;fill-opacity:0.2;fill-rule:nonzero;"/><path d="M293.867,411.288c-16.041,16.235 -46.443,-7.641 -57.937,8.359c-11.494,15.996 -4.071,39.393 2.395,103.373c6.706,64.222 27.055,228.954 -5.267,272.167c-19.392,26.022 -48.602,46.316 -68.711,58.492c-13.649,8.355 -22.987,12.65 -22.987,12.65l-2.632,-48.701c-2.875,-48.941 10.534,-142.291 25.139,-210.33c11.734,-53.957 0.716,-131.069 -7.662,-186.219c-2.155,-14.8 -4.071,-27.932 -5.507,-38.675c-6.463,-51.329 39.504,-114.359 116.114,-111.017c0,0 -11.014,34.38 4.071,68.282c14.845,33.659 38.788,55.146 22.984,71.62Z" style="fill:#135194;fill-opacity:0.3;fill-rule:nonzero;"/><path d="M286.775,390.298c-16.037,16.235 -46.447,-7.641 -57.937,8.355c-11.494,15.996 -4.071,39.393 2.395,103.376c6.703,64.222 27.055,228.954 -5.267,272.167c-19.392,26.022 -48.602,46.313 -68.711,58.492c-13.645,8.355 -22.984,12.654 -22.984,12.654l-2.632,-48.705c-2.875,-48.941 10.534,-142.291 25.139,-210.33c11.73,-53.957 0.716,-131.069 -7.662,-186.219c-2.155,-14.8 -4.071,-27.932 -5.507,-38.675c-6.47,-51.329 39.497,-114.359 116.11,-111.017c0,0 -11.014,34.38 4.071,68.282c14.841,33.663 38.781,55.146 22.984,71.62Z" style="fill:#135194;fill-rule:nonzero;"/><path d="M322.118,380.533c0,1.878 -0.219,3.738 -0.658,5.579c-0.438,1.842 -1.088,3.63 -1.948,5.365c-0.86,1.735 -1.914,3.383 -3.163,4.944c-1.249,1.561 -2.667,3.006 -4.256,4.334c-1.589,1.328 -3.318,2.513 -5.187,3.557c-1.869,1.043 -3.841,1.924 -5.917,2.643c-2.076,0.719 -4.216,1.261 -6.421,1.627c-2.204,0.366 -4.43,0.55 -6.677,0.55c-2.247,0 -4.473,-0.183 -6.677,-0.55c-2.204,-0.366 -4.344,-0.909 -6.421,-1.627c-2.076,-0.719 -4.049,-1.6 -5.917,-2.643c-1.869,-1.043 -3.597,-2.229 -5.187,-3.557c-1.589,-1.328 -3.008,-2.772 -4.257,-4.334c-1.249,-1.561 -2.303,-3.209 -3.163,-4.944c-0.86,-1.735 -1.509,-3.523 -1.948,-5.365c-0.438,-1.842 -0.658,-3.701 -0.658,-5.579c-0,-1.878 0.219,-3.738 0.658,-5.579c0.438,-1.842 1.088,-3.63 1.948,-5.365c0.86,-1.735 1.914,-3.383 3.163,-4.944c1.249,-1.561 2.667,-3.006 4.257,-4.334c1.589,-1.328 3.318,-2.513 5.187,-3.557c1.869,-1.043 3.841,-1.924 5.917,-2.643c2.076,-0.719 4.216,-1.261 6.421,-1.627c2.204,-0.366 4.43,-0.55 6.677,-0.55c2.247,0 4.473,0.183 6.677,0.55c2.204,0.366 4.344,0.909 6.421,1.627c2.076,0.719 4.049,1.6 5.917,2.643c1.869,1.043 3.597,2.229 5.187,3.557c1.589,1.328 3.008,2.772 4.256,4.334c1.249,1.561 2.303,3.209 3.163,4.944c0.86,1.735 1.509,3.523 1.948,5.365c0.438,1.842 0.658,3.702 0.658,5.579Z" style="fill:#135194;fill-rule:nonzero;"/><path d="M321.009,247.532c8.589,54.668 -25.779,120.318 -24.805,130.764c0.974,10.443 49.231,21.886 85.453,78.087c36.226,56.201 14.278,61.674 32.234,134.291c17.953,72.617 28.429,116.886 28.429,116.886c0,0 13.467,-110.419 0,-146.231c-13.467,-35.812 18.952,-91.52 20.45,-184.029c1.494,-92.513 -20.45,-93.01 -67.835,-113.402c-47.381,-20.393 -73.927,-16.365 -73.927,-16.365Z" style="fill:#135194;fill-rule:nonzero;"/><path d="M239.605,121.635c-5.489,-11.936 -33.325,-3.233 -27.763,8.453c5.565,11.69 4.318,7.96 5.565,21.386c1.247,13.43 2.744,24.122 15.212,7.213c12.471,-16.909 6.986,-37.052 6.986,-37.052Z" style="fill:#ba5418;fill-rule:nonzero;"/><path d="M342.615,121.635c5.489,-11.936 33.329,-3.233 27.76,8.453c-5.565,11.69 -4.318,7.96 -5.565,21.386c-1.247,13.43 -2.744,24.122 -15.212,7.213c-12.468,-16.909 -6.983,-37.052 -6.983,-37.052Z" style="fill:#ba5418;fill-rule:nonzero;"/><path d="M27.908,712.055c55.043,319.723 130.595,905.655 128.236,913.641c-2.359,7.985 20.254,7.985 20.915,-5.702c0.665,-13.687 -100.087,-865.766 -111.065,-922.797c-10.97,-57.035 -51.241,-61.54 -38.087,14.858Z" style="fill:#c96c2e;fill-rule:nonzero;"/><path d="M14.164,702.155c-5.583,-18.432 -17.771,-38.907 -13.133,-55.472c4.635,-16.565 54.084,-28.124 55.629,-15.796c1.548,12.328 18.011,50.851 18.084,63.182c0.073,12.324 -49.377,45.069 -60.579,8.087Z" style="fill:#ba5418;fill-rule:nonzero;"/><path d="M221.609,142.01c0,0 -5.202,-61.076 -6.198,-95.561c-1,-34.485 24.939,-33.822 25.935,-34.485c0.996,-0.663 15.296,-12.599 54.535,-11.936c39.239,0.66 67.835,25.532 68.5,39.125c0.665,13.596 -5.245,106.541 -5.245,106.541c0,0 -3.729,-48.513 -8.386,-70.399c-4.656,-21.886 -24.772,-30.505 -56.112,-28.186c-31.34,2.32 -61.935,3.98 -61.935,3.98c0,0 -7.979,33.822 -8.313,47.748c-0.331,13.93 -2.781,43.174 -2.781,43.174Z" style="fill:#421e09;fill-rule:nonzero;"/><path d="M300.868,153.551c0,4.209 -4.924,7.626 -10.988,7.626c-6.065,0 -10.988,-3.417 -10.988,-7.626c0,-4.209 4.924,-7.626 10.988,-7.626c6.065,0 10.988,3.417 10.988,7.626Z" style="fill:#421e09;fill-opacity:0.4;"/><path d="M258.986,126.315c0,2.205 -1.206,3.994 -2.692,3.994c-1.486,0 -2.692,-1.79 -2.692,-3.994c0,-2.205 1.206,-3.994 2.692,-3.994c1.486,0 2.692,1.79 2.692,3.994Z" style="fill:#421e09;"/><path d="M241.964,113.708c8.433,-3.541 23.285,-3.541 23.285,-3.541l-1.378,-8.319c0,0 -10.817,1.153 -14.943,2.831c-4.126,1.682 -6.964,9.029 -6.964,9.029Z" style="fill:#421e09;fill-rule:nonzero;"/><path d="M321.703,124.818c0,-2.205 1.206,-3.994 2.692,-3.994c1.486,0 2.692,1.79 2.692,3.994c0,2.205 -1.206,3.994 -2.692,3.994c-1.486,0 -2.692,-1.79 -2.692,-3.994Z" style="fill:#421e09;"/><path d="M338.729,112.207c-8.433,-3.538 -23.285,-3.538 -23.285,-3.538l1.378,-8.319c0,0 10.817,1.153 14.943,2.831c4.122,1.682 6.964,9.025 6.964,9.025Z" style="fill:#421e09;fill-rule:nonzero;"/><path d="M263.621,174.828c21.155,-0.5 55.581,0 55.581,0c0,0 -22.533,4.118 -29.167,4.118c-6.637,0 -26.415,-4.118 -26.415,-4.118Z" style="fill:#7a2d00;fill-opacity:0.5;fill-rule:nonzero;"/><path d="M182.152,554.072c-6.463,149.214 -43.335,198.394 -32.318,252.112c1.912,9.79 4.547,18.62 7.419,26.5c-13.645,8.355 -22.984,12.654 -22.984,12.654l-2.632,-48.705c-2.875,-48.941 10.534,-142.291 25.139,-210.33c11.73,-53.957 0.716,-131.069 -7.662,-186.219c16.277,18.384 37.105,60.645 33.038,153.988Z" style="fill:#135194;fill-opacity:0.3;fill-rule:nonzero;"/></g></svg>