<?xml version="1.0" encoding="UTF-8" standalone="no"?><!DOCTYPE svg PUBLIC "-//W3C//DTD SVG 1.1//EN" "http://www.w3.org/Graphics/SVG/1.1/DTD/svg11.dtd"><svg width="100%" height="100%" viewBox="0 0 498 1631" version="1.1" xmlns="http://www.w3.org/2000/svg" xmlns:xlink="http://www.w3.org/1999/xlink" xml:space="preserve" xmlns:serif="http://www.serif.com/" style="fill-rule:evenodd;clip-rule:evenodd;stroke-linejoin:round;stroke-miterlimit:2;"><g><path d="M166.639,1529.319c5.479,-24.041 -1.327,-47.533 -7.009,-71.033c-11.187,-46.268 -23.814,-100.106 -34.729,-145.932l87.325,0c1.551,44.83 2.695,96.421 3.723,143.032c0.269,12.191 3.688,25.821 4.985,37.845c1.385,12.828 -1.489,25.914 -2.445,38.696c-0.957,12.779 -1.266,25.608 -0.923,38.419c0.335,12.517 2.635,25.433 1.304,37.922c-0.823,7.725 -3.555,17.118 -10.892,21.165c-5.003,2.761 -11.083,1.712 -14.493,-2.712c-4.639,2.999 -9.175,1.857 -13.796,-1.035c-1.284,-0.803 -0.684,-0.972 -2.005,-1.19c-1.073,-0.176 -2.899,0.829 -4.193,0.823c-3.47,-0.019 -5.046,-2.346 -7.972,-3.034c-2.077,-0.488 -3.962,0.148 -6.144,-0.829c-3.306,-1.481 -6.399,-4.375 -8.761,-7.065c-5.72,-6.509 -4.033,-13.077 -2.033,-20.848c5.543,-21.54 13.113,-42.528 18.059,-64.227Z" style="fill:#823e2e;fill-rule:nonzero;"/><path d="M194.437,1625.445c-2.865,-4.027 -0.901,-8.947 1.299,-12.776c2.355,-4.101 5.06,-8.007 5.458,-12.859c0.15,-1.828 -2.707,-1.818 -2.856,0c-0.427,5.197 -4.18,9.281 -6.342,13.817c-1.973,4.141 -2.86,9.271 -0.026,13.258c1.056,1.484 3.533,0.061 2.467,-1.439Z" style="fill:#612516;fill-rule:nonzero;"/><path d="M179.115,1623.332c-2.006,-2.403 -0.929,-5.873 0.408,-8.298c1.636,-2.965 3.827,-5.554 4.98,-8.78c0.619,-1.732 -2.14,-2.478 -2.753,-0.759c-1.277,3.574 -4.054,6.37 -5.544,9.847c-1.416,3.307 -1.511,7.131 0.891,10.005c1.178,1.41 3.189,-0.616 2.019,-2.016Z" style="fill:#612516;fill-rule:nonzero;"/><path d="M168.039,1620.818c-1.958,-2.309 -0.879,-5.703 0.266,-8.108c1.519,-3.19 3.212,-6.306 4.824,-9.451c0.836,-1.63 -1.627,-3.075 -2.466,-1.438c-1.868,3.643 -3.983,7.252 -5.529,11.046c-1.344,3.302 -1.536,7.112 0.885,9.967c1.189,1.403 3.201,-0.623 2.019,-2.016Z" style="fill:#612516;fill-rule:nonzero;"/><path d="M158.314,1617.582c-2.98,-4.345 -0.979,-9.756 0.673,-14.197c0.268,-0.722 -0.299,-1.562 -0.997,-1.754c-0.799,-0.219 -1.487,0.272 -1.757,0.996c-1.926,5.181 -3.826,11.377 -0.384,16.395c0.436,0.635 1.254,0.92 1.954,0.512c0.63,-0.368 0.95,-1.313 0.511,-1.951Z" style="fill:#612516;fill-rule:nonzero;"/><path d="M294.074,1529.319c-5.479,-24.041 1.326,-47.533 7.009,-71.033c11.187,-46.268 23.814,-100.106 34.729,-145.932l-87.325,0c-1.551,44.83 -2.695,96.421 -3.723,143.032c-0.269,12.191 -3.688,25.821 -4.985,37.845c-1.386,12.828 1.488,25.914 2.445,38.696c0.957,12.779 1.266,25.608 0.923,38.419c-0.335,12.517 -2.635,25.433 -1.305,37.922c0.823,7.725 3.557,17.118 10.893,21.165c5.003,2.761 11.083,1.712 14.493,-2.712c4.639,2.999 9.175,1.857 13.796,-1.035c1.284,-0.803 0.684,-0.972 2.006,-1.19c1.073,-0.176 2.899,0.829 4.193,0.823c3.47,-0.019 5.045,-2.346 7.972,-3.034c2.077,-0.488 3.961,0.148 6.144,-0.829c3.306,-1.481 6.399,-4.375 8.761,-7.065c5.72,-6.509 4.033,-13.077 2.032,-20.848c-5.542,-21.54 -13.113,-42.528 -18.058,-64.227Z" style="fill:#823e2e;fill-rule:nonzero;"/><path d="M266.276,1625.445c2.864,-4.027 0.901,-8.947 -1.299,-12.776c-2.356,-4.101 -5.059,-8.007 -5.458,-12.859c-0.15,-1.828 2.707,-1.818 2.856,0c0.426,5.197 4.179,9.281 6.342,13.817c1.973,4.141 2.86,9.271 0.025,13.258c-1.054,1.484 -3.533,0.061 -2.466,-1.439Z" style="fill:#612516;fill-rule:nonzero;"/><path d="M281.598,1623.332c2.006,-2.403 0.929,-5.873 -0.408,-8.298c-1.636,-2.965 -3.828,-5.554 -4.98,-8.78c-0.619,-1.732 2.14,-2.478 2.753,-0.759c1.277,3.574 4.054,6.37 5.543,9.847c1.417,3.307 1.511,7.131 -0.89,10.005c-1.179,1.41 -3.189,-0.616 -2.019,-2.016Z" style="fill:#612516;fill-rule:nonzero;"/><path d="M292.673,1620.818c1.959,-2.309 0.88,-5.703 -0.265,-8.108c-1.519,-3.19 -3.212,-6.306 -4.824,-9.451c-0.836,-1.63 1.627,-3.075 2.466,-1.438c1.868,3.643 3.983,7.252 5.529,11.046c1.344,3.302 1.536,7.112 -0.885,9.967c-1.189,1.403 -3.201,-0.623 -2.02,-2.016Z" style="fill:#612516;fill-rule:nonzero;"/><path d="M302.398,1617.582c2.98,-4.345 0.98,-9.756 -0.672,-14.197c-0.268,-0.722 0.3,-1.562 0.997,-1.754c0.798,-0.219 1.487,0.272 1.756,0.996c1.927,5.181 3.827,11.377 0.385,16.395c-0.436,0.635 -1.255,0.92 -1.954,0.512c-0.63,-0.368 -0.95,-1.313 -0.512,-1.951Z" style="fill:#612516;fill-rule:nonzero;"/><path d="M64.641,945.465c-10.246,-62.55 -27.224,-125.002 -19.76,-188.89c7.137,-61.09 46.276,-118.245 72.673,-173.326c-0.075,-38.657 -24.204,-169.525 -21.302,-196.125l294.326,0c2.225,26.328 -24.584,182.083 -24.879,198.861c23.944,45.73 57.174,108.012 65.648,159.188c10.001,60.407 -2.836,120.789 -15.188,179.82c-6.771,32.358 -13.331,64.787 -16.266,97.758c-2.933,32.927 -2.865,66.037 -1.653,99.047c2.407,65.575 8.66,130.893 6.943,196.581c-1.899,72.647 -11.173,145.001 -27.374,215.842c-30.015,9.079 -61.158,12.922 -92.231,11.738l0.052,10.831c-8.511,2.119 -35.913,3.563 -44.512,2.557c-10.369,-1.211 -20.726,-2.525 -31.103,-3.668c-42.302,-4.66 -84.745,-7.934 -127.257,-9.92c-8.861,-66.713 -17.782,-133.596 -19.596,-200.951c-1.79,-66.429 6.86,-132.047 11.085,-198.199c4.291,-67.179 1.28,-134.693 -9.607,-201.145Z" style="fill:#ff7300;fill-rule:nonzero;"/><path d="M267.811,448.572c-11.34,37.762 -22.68,75.523 -34.02,113.286c-1.045,3.476 -6.512,1.995 -5.462,-1.503c11.34,-37.762 22.68,-75.523 34.02,-113.286c1.045,-3.476 6.512,-1.995 5.462,1.503Z" style="fill:#ff9d4d;fill-rule:nonzero;"/><path d="M304.135,572.661c18.297,45.882 35.287,92.282 50.704,139.207c18.175,55.323 34.278,111.325 48.21,167.863c4.187,16.991 8.111,34.043 11.906,51.125c-6.326,30.415 -12.305,60.914 -15.063,91.895c-2.933,32.928 -2.865,66.037 -1.653,99.047c2.407,65.574 8.66,130.893 6.943,196.581c-1.899,72.647 -11.172,145.001 -27.374,215.842c-18.678,5.65 -37.795,9.267 -57.058,10.912c-1.948,-38.071 -4.569,-76.119 -6.858,-114.155c-4.539,-75.406 -5.16,-151.003 -10.578,-226.356c-2.737,-38.07 -5.488,-76.118 -7.997,-114.209c-2.49,-37.807 -5.365,-75.603 -9.741,-113.244c-8.612,-74.088 -24.723,-147.042 -43.833,-219.082c-16.535,-62.33 -35.578,-123.951 -55.032,-185.426l117.423,0Z" style="fill:#ff9d4d;fill-rule:nonzero;"/><path d="M75.762,1110.477c3.23,15.051 6.534,30.086 9.988,45.089c12.079,52.47 25.659,104.624 41.747,156.021c15.95,50.955 34.391,101.169 56.265,149.9c14.894,33.175 31.469,65.6 49.85,96.976c-7.864,-0.944 -15.725,-1.916 -23.598,-2.784c-42.302,-4.66 -84.745,-7.934 -127.257,-9.92c-8.861,-66.713 -17.782,-133.596 -19.596,-200.951c-1.79,-66.429 6.86,-132.047 11.085,-198.199c0.769,-12.035 1.218,-24.083 1.515,-36.132Z" style="fill:#ff9d4d;fill-rule:nonzero;"/><path d="M104.977,1052.579c26.287,31.109 60.225,55.147 98.373,69.519c1.689,0.637 0.957,3.371 -0.753,2.726c-38.605,-14.545 -73.01,-38.751 -99.623,-70.246c-1.168,-1.382 0.825,-3.393 2.003,-1.999Z" style="fill:#d65200;fill-rule:nonzero;"/><path d="M216.521,1485.856c-2.244,18.643 -4.489,37.287 -6.734,55.931c-0.214,1.784 -3.049,1.806 -2.831,0c2.245,-18.644 4.489,-37.287 6.734,-55.931c0.215,-1.784 3.049,-1.806 2.831,-0Z" style="fill:#d65200;fill-rule:nonzero;"/><path d="M287.184,1545.057c11.751,-121.331 11.293,-243.753 -1.506,-364.984c-6.438,-60.987 -15.99,-121.646 -28.611,-181.662c-12.509,-59.484 -28.961,-117.897 -45.004,-176.496c-17.742,-64.799 -34.104,-130.221 -40.203,-197.287c-0.164,-1.811 2.669,-1.801 2.832,0c11.082,121.869 55.337,237.485 81.52,356.371c25.907,117.634 39.985,237.869 42.045,358.294c1.174,68.681 -1.62,137.394 -8.242,205.764c-0.174,1.796 -3.008,1.813 -2.832,0Z" style="fill:#d65200;fill-rule:nonzero;"/><path d="M218.737,1194.62c4.085,88.019 4.163,176.183 0.234,264.21c-0.081,1.812 -2.913,1.822 -2.831,0c3.929,-88.027 3.851,-176.191 -0.233,-264.21c-0.085,-1.819 2.747,-1.815 2.831,-0Z" style="fill:#d65200;fill-rule:nonzero;"/><path d="M237.293,1511.394c-67.038,-151.753 -121.345,-308.595 -162.377,-469.214c-0.558,-10.928 -1.361,-21.841 -2.324,-32.741c40.929,167.785 96.242,331.599 165.51,489.867c-0.257,4.03 -0.521,8.06 -0.809,12.088Z" style="fill:#ff9d4d;fill-rule:nonzero;"/><path d="M334.432,566.766c40.454,94.379 71.947,191.915 94.511,291.837c-0.776,4.897 -1.619,9.787 -2.492,14.672c-22.596,-104.06 -54.868,-205.574 -96.91,-303.655c-1.418,-3.309 3.459,-6.194 4.891,-2.854Z" style="fill:#ff9d4d;fill-rule:nonzero;"/><path d="M197.781,878.236c-15.405,-62.484 -24.927,-126.246 -28.458,-190.498c-0.1,-1.817 2.733,-1.812 2.832,0c3.517,64.004 13.011,127.505 28.357,189.747c0.435,1.766 -2.294,2.52 -2.731,0.751Z" style="fill:#d65200;fill-rule:nonzero;"/><path d="M396.325,799.886c-22.979,36.904 -58.655,64.906 -99.986,78.51c-1.734,0.571 -2.477,-2.159 -0.752,-2.727c40.62,-13.371 75.713,-40.946 98.293,-77.211c0.96,-1.542 3.411,-0.124 2.445,1.427Z" style="fill:#d65200;fill-rule:nonzero;"/><path d="M76.186,833.524c16.599,21.734 38.054,39.447 62.486,51.756c1.627,0.821 0.195,3.26 -1.43,2.442c-24.89,-12.541 -46.602,-30.643 -63.501,-52.77c-1.105,-1.447 1.353,-2.856 2.445,-1.428Z" style="fill:#d65200;fill-rule:nonzero;"/><path d="M405.7,946.278c-10.967,27.663 -28.695,52.272 -51.577,71.346c-1.39,1.159 -3.403,-0.831 -2.002,-1.999c22.488,-18.747 40.062,-42.892 50.848,-70.099c0.662,-1.673 3.402,-0.944 2.73,0.752Z" style="fill:#d65200;fill-rule:nonzero;"/><path d="M390.126,1002.649c-19.745,40.278 -50.776,74.403 -88.986,97.964c-1.555,0.959 -2.979,-1.486 -1.429,-2.441c37.821,-23.32 68.43,-57.09 87.97,-96.949c0.801,-1.634 3.244,-0.203 2.445,1.427Z" style="fill:#d65200;fill-rule:nonzero;"/><path d="M85.191,1011.324c11.527,17.95 26.683,33.404 44.424,45.278c1.506,1.008 0.091,3.458 -1.429,2.441c-18.154,-12.15 -33.644,-27.923 -45.44,-46.292c-0.986,-1.536 1.463,-2.956 2.445,-1.427Z" style="fill:#d65200;fill-rule:nonzero;"/><path d="M269.161,1050.969c0.082,0.802 -0.166,1.396 -0.555,1.841c-1.018,-8.892 -2.575,-17.718 -3.888,-26.576c-1.729,-11.672 -3.938,-23.183 -8.074,-34.278c-0.1,-0.27 -0.27,-0.451 -0.413,-0.667c-15.205,-109.997 -41.243,-216.899 -77.991,-321.781c-1.851,-9.249 -3.539,-18.524 -4.045,-27.94c48.871,132.635 80.703,268.447 94.965,409.402Z" style="fill:#ff9d4d;fill-rule:nonzero;"/><path d="M96.252,387.123l150.178,0c-0.452,0.379 -0.834,0.876 -0.991,1.636c-3.678,17.758 -7.713,35.442 -12.168,53.023c-10.305,40.669 -22.889,80.754 -37.863,119.934l-79.206,0c-5.042,-52.236 -22.439,-151.77 -19.949,-174.594Z" style="fill:#ff9d4d;fill-rule:nonzero;"/><path d="M117.552,583.141c-0.033,-10.775 -1.915,-28.641 -4.555,-49.397l259.642,0c-3.414,23.04 -6.081,41.537 -6.733,49.397l-248.354,0Z" style="fill:#24201f;fill-rule:nonzero;"/><path d="M339.726,119.906c-1.983,8.401 -10.594,13.575 -19.218,11.546c-8.623,-2.029 -14.014,-10.498 -12.031,-18.899c1.983,-8.401 10.594,-13.575 19.218,-11.546c8.623,2.029 14.014,10.498 12.031,18.899Z" style="fill:#823e2e;"/><path d="M360.379,169.234c0,2.196 -0.214,4.37 -0.643,6.523c-0.429,2.153 -1.064,4.244 -1.906,6.273c-0.842,2.028 -1.873,3.955 -3.095,5.781c-1.222,1.826 -2.61,3.515 -4.165,5.067c-1.555,1.552 -3.247,2.939 -5.075,4.158c-1.828,1.22 -3.758,2.25 -5.79,3.09c-2.032,0.84 -4.126,1.475 -6.283,1.903c-2.157,0.428 -4.335,0.643 -6.534,0.643c-2.199,0 -4.377,-0.214 -6.534,-0.643c-2.157,-0.428 -4.251,-1.063 -6.283,-1.903c-2.032,-0.84 -3.962,-1.87 -5.79,-3.09c-1.828,-1.22 -3.52,-2.606 -5.075,-4.158c-1.555,-1.553 -2.943,-3.242 -4.165,-5.067c-1.222,-1.826 -2.253,-3.753 -3.095,-5.781c-0.842,-2.028 -1.477,-4.119 -1.906,-6.273c-0.429,-2.153 -0.643,-4.328 -0.643,-6.523c-0,-2.196 0.214,-4.37 0.643,-6.524c0.429,-2.153 1.064,-4.244 1.906,-6.273c0.842,-2.028 1.873,-3.955 3.095,-5.781c1.222,-1.826 2.61,-3.515 4.165,-5.067c1.555,-1.553 3.247,-2.939 5.075,-4.158c1.828,-1.22 3.758,-2.25 5.79,-3.09c2.032,-0.84 4.126,-1.474 6.283,-1.903c2.157,-0.428 4.335,-0.642 6.534,-0.642c2.199,0 4.377,0.214 6.534,0.642c2.157,0.428 4.251,1.063 6.283,1.903c2.032,0.84 3.962,1.87 5.79,3.09c1.828,1.22 3.52,2.606 5.075,4.158c1.555,1.552 2.943,3.242 4.165,5.067c1.222,1.826 2.253,3.753 3.095,5.781c0.842,2.028 1.477,4.119 1.906,6.273c0.429,2.153 0.644,4.328 0.644,6.524Z" style="fill:#ffa600;fill-rule:nonzero;"/><path d="M320.651,131.042c0,-3.432 2.799,-6.226 6.235,-6.226c3.437,0 6.236,2.794 6.236,6.226c0,3.431 -2.799,6.226 -6.236,6.226c-3.436,0 -6.235,-2.795 -6.235,-6.226Zm1.921,0c0,2.378 1.933,4.315 4.315,4.315c2.382,0 4.315,-1.936 4.315,-4.315c0,-2.378 -1.934,-4.315 -4.315,-4.315c-2.382,0 -4.315,1.936 -4.315,4.315Z" style="fill:#eb7d00;fill-rule:nonzero;"/><path d="M320.392,169.235c0,-3.579 2.91,-6.485 6.495,-6.485c3.585,0 6.495,2.906 6.495,6.485c0,3.579 -2.91,6.485 -6.495,6.485c-3.585,0 -6.495,-2.906 -6.495,-6.485Z" style="fill:#d90e00;"/><path d="M185.615,249.081c14.071,-5.89 26.148,-16.894 26.148,-34.714l0,-41.97l80.727,0l0,41.97c0,17.82 9.354,28.824 23.104,34.714l-129.979,0Z" style="fill:#823e2e;fill-rule:nonzero;"/><path d="M211.763,197.65l0,-25.254l80.727,0l0,25.254c-40.364,24.565 -80.727,0 -80.727,0Z" style="fill:#612516;fill-rule:nonzero;"/><path d="M253.306,0c71.323,0 81.565,64.609 72.272,103.089c-0.191,0.286 -0.34,0.714 -0.52,0.856c-0.012,-0.421 -0.064,-0.926 -0.084,-1.364c-0.613,14.276 -3.539,28.385 -9.351,41.474c-15.564,35.05 -34.297,52.298 -63.251,51.846c-22.625,-0.354 -66.187,-30.117 -69.436,-75.396c-0.399,-5.553 -0.728,-10.766 -1.012,-15.66c-0.001,0.011 -0.001,0.024 -0.002,0.034c-0.266,-0.341 -0.702,-1.802 -0.91,-2.719c-5.699,-18.787 -13.074,-102.16 72.294,-102.16Z" style="fill:#823e2e;fill-rule:nonzero;"/><path d="M256.658,113.138c0.486,2.965 1.163,5.891 1.851,8.818c0.482,2.051 1.021,4.13 1.136,6.234c0.072,1.314 -0.081,2.811 -1.2,3.715c-1.329,1.072 -3.421,1.347 -5.088,1.075c-2.722,-0.446 -4.759,-2.265 -6.007,-4.55c-0.459,-0.841 0.914,-1.495 1.372,-0.656c1.217,2.23 3.394,3.985 6.151,3.831c1.597,-0.09 3.065,-0.679 3.227,-2.317c0.204,-2.067 -0.45,-4.256 -0.915,-6.258c-0.74,-3.189 -1.504,-6.368 -2.032,-9.596c-0.153,-0.932 1.351,-1.231 1.504,-0.296Z" style="fill:#612516;fill-rule:nonzero;"/><path d="M214.97,91.768c-4.106,0.497 -8.146,1.281 -12.142,2.239c2.288,-1.364 5.377,-3.024 9.661,-5.018c5.69,-2.651 17.343,-2.107 22.099,-1.348c4.65,0.741 6.15,0.984 5.642,4.496c-8.135,-1.683 -17.216,-1.341 -25.259,-0.369Z" style="fill:#2e130c;fill-rule:nonzero;"/><path d="M277.205,113.769c0,-2.34 1.533,-4.24 3.421,-4.24c1.888,0 3.421,1.9 3.421,4.24c0,2.34 -1.533,4.24 -3.421,4.24c-1.888,0 -3.421,-1.9 -3.421,-4.24Z" style="fill:#2e130c;"/><path d="M222.871,113.769c0,-2.34 1.533,-4.24 3.421,-4.24c1.888,0 3.421,1.9 3.421,4.24c0,2.34 -1.533,4.24 -3.421,4.24c-1.888,0 -3.421,-1.9 -3.421,-4.24Z" style="fill:#2e130c;"/><path d="M163.859,119.906c-1.983,-8.401 3.407,-16.87 12.03,-18.899c8.623,-2.029 17.234,3.144 19.217,11.546c1.983,8.401 -3.407,16.87 -12.03,18.899c-8.623,2.029 -17.234,-3.144 -19.217,-11.546Z" style="fill:#823e2e;"/><path d="M181.516,114.319c-0.998,-2.058 -2.645,-3.624 -4.631,-4.841c-0.805,-0.493 -1.453,0.793 -0.657,1.281c1.563,0.956 2.906,2.252 3.745,3.838c-1.446,0.074 -2.889,0.494 -3.797,1.647c-0.9,1.141 -1.066,2.619 -0.639,3.957c0.247,0.77 0.707,1.455 1.299,2.024c0.282,0.272 0.805,0.194 1.053,-0.082c0.283,-0.313 0.206,-0.728 -0.078,-1.001c-0.026,-0.026 -0.185,-0.199 -0.07,-0.068c-0.043,-0.049 -0.088,-0.098 -0.13,-0.149c-0.09,-0.108 -0.173,-0.22 -0.251,-0.337c-0.041,-0.061 -0.08,-0.124 -0.118,-0.188c-0.013,-0.021 -0.025,-0.042 -0.036,-0.063c-0.064,-0.129 -0.125,-0.26 -0.177,-0.394c-0.049,-0.127 -0.093,-0.257 -0.129,-0.389c-0.007,-0.028 -0.053,-0.22 -0.031,-0.118c0.019,0.092 -0.019,-0.104 -0.025,-0.146c-0.021,-0.133 -0.034,-0.267 -0.041,-0.4c-0.003,-0.063 -0.005,-0.125 -0.005,-0.188c0,-0.044 0.02,-0.299 0,-0.102c0.028,-0.267 0.081,-0.519 0.153,-0.777c0.034,-0.121 -0.048,0.101 0.019,-0.049c0.025,-0.057 0.048,-0.114 0.075,-0.17c0.062,-0.13 0.136,-0.252 0.211,-0.375c-0.095,0.154 0.027,-0.036 0.053,-0.068c0.039,-0.05 0.082,-0.1 0.124,-0.149c0.043,-0.048 0.089,-0.095 0.135,-0.142c0.027,-0.027 0.055,-0.052 0.082,-0.079c0.095,-0.097 -0.059,0.044 0.011,-0.01c0.109,-0.085 0.219,-0.168 0.337,-0.243c0.061,-0.038 0.123,-0.075 0.185,-0.11c0.025,-0.014 0.05,-0.027 0.075,-0.039c0.014,-0.007 0.04,-0.02 0.068,-0.031c0.176,-0.076 0.357,-0.144 0.542,-0.198c0.093,-0.028 0.185,-0.052 0.279,-0.074c0.028,-0.006 0.017,-0.003 0.03,-0.006c0.061,-0.012 0.123,-0.023 0.184,-0.032c0.389,-0.06 0.811,-0.067 1.195,-0.057c0.547,1.684 0.647,3.48 0.483,5.241c-0.085,0.902 1.381,1.175 1.466,0.265c0.227,-2.426 0.096,-4.944 -0.987,-7.181Z" style="fill:#612516;fill-rule:nonzero;"/><path d="M322.068,114.319c0.997,-2.058 2.644,-3.624 4.63,-4.841c0.806,-0.493 1.453,0.793 0.657,1.281c-1.563,0.956 -2.905,2.252 -3.744,3.838c1.446,0.074 2.888,0.494 3.797,1.647c0.899,1.141 1.065,2.619 0.638,3.957c-0.246,0.77 -0.706,1.455 -1.298,2.024c-0.283,0.272 -0.805,0.194 -1.053,-0.082c-0.282,-0.313 -0.206,-0.728 0.078,-1.001c0.026,-0.026 0.186,-0.199 0.071,-0.068c0.043,-0.049 0.088,-0.098 0.129,-0.149c0.09,-0.108 0.173,-0.22 0.251,-0.337c0.041,-0.061 0.081,-0.124 0.119,-0.188c0.013,-0.021 0.025,-0.042 0.036,-0.063c0.064,-0.129 0.124,-0.26 0.177,-0.394c0.049,-0.127 0.092,-0.257 0.129,-0.389c0.008,-0.028 0.053,-0.22 0.031,-0.118c-0.02,0.092 0.018,-0.104 0.025,-0.146c0.021,-0.133 0.035,-0.267 0.042,-0.4c0.003,-0.063 0.004,-0.125 0.004,-0.188c0,-0.044 -0.02,-0.299 0.001,-0.102c-0.028,-0.267 -0.081,-0.519 -0.153,-0.777c-0.035,-0.121 0.047,0.101 -0.02,-0.049c-0.025,-0.057 -0.048,-0.114 -0.075,-0.17c-0.061,-0.13 -0.135,-0.252 -0.21,-0.375c0.094,0.154 -0.029,-0.036 -0.054,-0.068c-0.039,-0.05 -0.081,-0.1 -0.124,-0.149c-0.043,-0.048 -0.088,-0.095 -0.134,-0.142c-0.028,-0.027 -0.056,-0.052 -0.083,-0.079c-0.096,-0.097 0.059,0.044 -0.01,-0.01c-0.111,-0.085 -0.22,-0.168 -0.338,-0.243c-0.06,-0.038 -0.122,-0.075 -0.185,-0.11c-0.025,-0.014 -0.049,-0.027 -0.075,-0.039c-0.014,-0.007 -0.041,-0.02 -0.067,-0.031c-0.177,-0.076 -0.357,-0.144 -0.543,-0.198c-0.092,-0.028 -0.185,-0.052 -0.279,-0.074c-0.027,-0.006 -0.016,-0.003 -0.029,-0.006c-0.061,-0.012 -0.123,-0.023 -0.184,-0.032c-0.389,-0.06 -0.812,-0.067 -1.195,-0.057c-0.547,1.684 -0.647,3.48 -0.483,5.241c0.084,0.902 -1.381,1.175 -1.466,0.265c-0.227,-2.426 -0.097,-4.944 0.987,-7.181Z" style="fill:#612516;fill-rule:nonzero;"/><path d="M325.072,101.597c-3.394,-0.2 -6.974,0.518 -9.187,3.305c-0.317,0.399 -1.003,0.331 -1.335,0c-0.394,-0.395 -0.317,-0.933 0,-1.332c2.494,-3.143 6.688,-4.083 10.522,-3.857c1.207,0.071 1.215,1.956 0,1.884Z" style="fill:#612516;fill-rule:nonzero;"/><path d="M182.016,99.874c3.221,0.469 6.246,2.001 8.57,4.27c0.87,0.849 -0.465,2.181 -1.334,1.332c-2.111,-2.059 -4.821,-3.36 -7.737,-3.784c-0.505,-0.074 -0.782,-0.712 -0.659,-1.16c0.149,-0.54 0.654,-0.732 1.161,-0.658Z" style="fill:#612516;fill-rule:nonzero;"/><path d="M291.948,91.768c4.106,0.497 8.146,1.281 12.142,2.239c-2.288,-1.364 -5.377,-3.024 -9.661,-5.018c-5.69,-2.651 -17.342,-2.107 -22.099,-1.348c-4.65,0.741 -6.15,0.984 -5.642,4.496c8.135,-1.683 17.216,-1.341 25.259,-0.369Z" style="fill:#2e130c;fill-rule:nonzero;"/><path d="M1.884,504.187c14.587,35.019 245.997,82.935 249.782,85.601c9.361,6.594 46.455,32.496 55.76,38.858c8.619,5.893 16.993,11.908 26.666,16.004c1.054,0.446 4.098,1.698 8.014,3.124c-3.788,5.919 -7.675,11.847 -11.763,17.786c-12.651,6.057 -25.095,12.529 -37.262,19.506c-10.957,6.283 -22.155,12.638 -29.956,22.829c-4.14,5.409 -7.502,11.454 -12.354,16.294c-1.48,1.476 -9.56,6.483 -9.839,8.25c-0.864,5.477 3.441,7.774 17.08,7.564c-0.187,0.145 -26.654,15.189 -23.566,23.496c1.719,4.624 8.737,3.046 12.614,2.142c0.655,-0.154 1.283,-0.381 1.926,-0.568c-1.583,0.833 -3.136,1.709 -4.512,2.842c-2.46,2.023 -4.239,5.363 -3.083,8.554c0.489,1.349 1.399,2.553 2.7,3.21c1.657,0.835 3.522,0.57 5.265,0.201c1.965,-0.415 3.919,-0.877 5.84,-1.443c-1.442,2.4 -2.212,5.045 0.471,6.709c1.896,1.176 4.885,0.354 6.955,0.161c2.891,-0.269 5.778,-0.582 8.659,-0.942c7.831,-0.975 16.631,-1.708 23.534,-5.893c7.864,-0.215 15.429,-1.163 21.339,-6.927c6.225,-6.069 12.497,-14.342 16.797,-21.765c10.415,-17.978 19.196,-32.558 29.609,-50.536c34.621,-26.205 119.263,-125.56 132.355,-156.262c13.057,-30.62 -23.228,-143.23 -35.318,-189.315c-5.296,-20.192 -10.894,-40.984 -21.54,-59.141c-9.13,-15.571 -22.421,-26.01 -39.367,-32.06c-33.749,-12.048 -80.738,-7.202 -105.018,-37.804l-83.401,0c-15.247,11.174 -30.794,12.479 -51.056,15.16c-21.538,2.85 -54.552,12.327 -70.177,28.118c-15.211,15.373 -22.836,33.944 -30.865,53.412c-8.916,21.621 -18.433,42.989 -27.335,64.616c-9.213,22.385 -38.485,95.336 -28.954,118.218Zm327.51,113.822c7.721,4.314 15.603,8.502 23.728,12.039c-1.037,1.711 -2.126,3.427 -3.178,5.139c-8.64,-3.816 -14.86,-9.885 -20.549,-17.179Zm-247.351,-143.815c8.835,-28.264 19.857,-59.126 29.638,-87.071l265.17,0c12.841,42.488 28.187,87.215 47.734,127.893c-17.842,24.07 -32.31,48.258 -46.486,72.59c-8.008,-2.712 -16.021,-5.406 -23.972,-8.291c-5.52,-2.003 -10.885,-4.038 -15.379,-7.932c-2.219,-1.921 -4.172,-4.103 -6.051,-6.352c10.382,2.597 22.689,5.045 32.292,0.156c2.905,-1.479 4.844,-4.427 2.911,-7.558c-2.468,-3.999 -8.158,-3.222 -12.124,-3.678c-13.515,-1.555 -25.974,-7.81 -39.461,-9.553c-12.169,-1.573 -24.952,0.648 -37.231,2.293c-65.68,-24.165 -131.359,-48.332 -197.04,-72.498Z" style="fill:#823e2e;fill-rule:nonzero;"/><path d="M256.257,776.197c6.253,-2.011 12.477,-4.112 18.663,-6.32c3.261,-1.164 6.642,-2.21 9.537,-4.159c2.724,-1.834 5.127,-4.244 7.578,-6.414c9.466,-8.381 18.784,-17.03 26.367,-27.195c1.076,-1.442 3.535,-0.034 2.445,1.427c-7.962,10.673 -17.694,19.716 -27.643,28.504c-2.246,1.985 -4.441,4.074 -6.888,5.813c-2.551,1.813 -5.473,2.886 -8.395,3.944c-6.925,2.508 -13.9,4.872 -20.911,7.128c-1.74,0.559 -2.484,-2.171 -0.753,-2.727Z" style="fill:#612516;fill-rule:nonzero;"/><path d="M296.275,776.095c10.47,-5.604 18.324,-14.689 25.949,-23.563c1.189,-1.383 3.184,0.625 2.003,1.999c-7.781,9.056 -15.839,18.288 -26.523,24.005c-1.606,0.859 -3.038,-1.58 -1.429,-2.441Z" style="fill:#612516;fill-rule:nonzero;"/><path d="M249.331,762.98c6.077,-1.407 11.775,-3.822 17.418,-6.432c5.044,-2.333 10.79,-4.322 15.297,-7.604c4.683,-3.41 8.765,-7.904 13.002,-11.846c4.608,-4.288 9.217,-8.575 13.826,-12.863c1.331,-1.24 3.339,0.756 2.003,1.999c-4.753,4.422 -9.506,8.844 -14.259,13.265c-4.332,4.03 -8.521,8.659 -13.378,12.068c-4.774,3.351 -10.792,5.464 -16.076,7.889c-5.528,2.538 -11.136,4.872 -17.08,6.249c-1.773,0.411 -2.53,-2.314 -0.753,-2.727Z" style="fill:#612516;fill-rule:nonzero;"/><path d="M258.681,738.218c11.079,-5.235 21.506,-11.777 30.996,-19.524c1.399,-1.142 3.415,0.846 2.003,1.999c-9.682,7.905 -20.262,14.622 -31.568,19.966c-1.639,0.774 -3.078,-1.663 -1.43,-2.441Z" style="fill:#612516;fill-rule:nonzero;"/><path d="M359.873,698.745c-2.996,-5.142 -6.989,-9.703 -11.749,-13.291c-0.609,-0.459 -0.926,-1.22 -0.507,-1.934c0.351,-0.599 1.322,-0.969 1.936,-0.507c5.159,3.888 9.512,8.722 12.766,14.305c0.918,1.575 -1.528,3 -2.446,1.427Z" style="fill:#612516;fill-rule:nonzero;"/><path d="M424.353,512.791c7.283,-6.951 16.568,-11.641 26.513,-13.293c1.782,-0.296 2.549,2.427 0.752,2.726c-9.482,1.575 -18.309,5.929 -25.262,12.566c-1.318,1.257 -3.323,-0.739 -2.002,-1.999Z" style="fill:#612516;fill-rule:nonzero;"/><path d="M251.089,587.614c1.748,-8.012 5.209,-15.613 10.125,-22.184c1.077,-1.441 3.537,-0.032 2.445,1.428c-4.789,6.4 -8.136,13.702 -9.839,21.508c-0.388,1.777 -3.118,1.025 -2.731,-0.752Z" style="fill:#612516;fill-rule:nonzero;"/><path d="M380.211,586.99c4.277,1.991 8.555,3.981 12.831,5.974c3.14,1.464 6.682,2.968 8.604,6.029c1.526,2.429 1.902,5.764 0.138,8.172c-1.862,2.542 -5.267,2.983 -8.169,2.487c-4.517,-0.772 -9.021,-2.571 -13.315,-4.125c-4.206,-1.521 -8.356,-3.187 -12.467,-4.943c-8.68,-3.708 -17.159,-7.863 -25.602,-12.076c-1.63,-0.814 -0.198,-3.254 1.429,-2.442c13.19,6.583 26.497,13.038 40.468,17.817c3.394,1.161 7.265,2.882 10.876,3.119c2.323,0.152 5.008,-0.728 5.136,-3.461c0.08,-1.72 -0.907,-3.316 -2.107,-4.452c-2.396,-2.268 -5.946,-3.461 -8.889,-4.831c-3.454,-1.609 -6.908,-3.218 -10.363,-4.826c-1.65,-0.768 -0.214,-3.207 1.43,-2.441Z" style="fill:#612516;fill-rule:nonzero;"/><path d="M393.611,607.493c4.632,2.853 12.34,9.733 7.836,15.683c-4.947,6.534 -15.112,1.677 -21.095,-0.354c-17.424,-5.913 -34.148,-13.761 -49.885,-23.279c-1.557,-0.942 -0.135,-3.388 1.429,-2.441c11.891,7.192 24.332,13.454 37.252,18.59c6.308,2.508 12.724,4.817 19.233,6.752c3.483,1.035 11.227,2.803 11.544,-3.12c0.211,-3.924 -4.859,-7.614 -7.742,-9.389c-1.548,-0.953 -0.127,-3.401 1.429,-2.441Z" style="fill:#612516;fill-rule:nonzero;"/><path d="M370.914,616.962c6.451,2.66 13.044,5.768 18.708,9.885c2.007,1.458 3.616,3.289 3.935,5.818c0.299,2.355 -0.499,4.856 -2.382,6.373c-2.286,1.842 -5.335,1.604 -8.036,1.046c-3.204,-0.662 -6.389,-1.511 -9.551,-2.346c-6.746,-1.781 -13.392,-3.967 -19.584,-7.216c-1.614,-0.847 -0.184,-3.288 1.429,-2.441c4.992,2.618 10.289,4.506 15.7,6.052c2.666,0.762 5.353,1.443 8.047,2.102c2.497,0.611 5.274,1.639 7.879,1.434c2.427,-0.191 3.979,-2.123 3.721,-4.539c-0.294,-2.755 -3.071,-4.227 -5.185,-5.539c-4.915,-3.052 -10.083,-5.697 -15.434,-7.903c-1.661,-0.684 -0.933,-3.421 0.753,-2.726Z" style="fill:#612516;fill-rule:nonzero;"/><path d="M351.663,634.643c5.044,1.946 10.125,3.817 15.135,5.847c2.08,0.843 4.138,1.955 5.164,4.057c0.879,1.801 0.619,3.832 -0.597,5.409c-2.929,3.793 -8.852,2.977 -13.013,2.497c-5.088,-0.587 -10.044,-1.861 -14.772,-3.828c-1.658,-0.689 -0.93,-3.426 0.753,-2.726c3.835,1.595 7.83,2.76 11.93,3.433c2.087,0.342 4.196,0.536 6.307,0.608c1.848,0.063 4.052,0.204 5.664,-0.875c1.547,-1.036 1.863,-2.747 0.578,-4.151c-1.376,-1.503 -3.747,-2.081 -5.585,-2.79c-4.106,-1.585 -8.211,-3.169 -12.317,-4.754c-1.682,-0.648 -0.951,-3.384 0.753,-2.725Z" style="fill:#612516;fill-rule:nonzero;"/><path d="M80.503,475.165c-11.087,-0.82 -22.224,1.198 -32.272,5.97c-1.638,0.777 -3.076,-1.66 -1.43,-2.441c10.495,-4.984 22.105,-7.213 33.702,-6.355c1.806,0.134 1.821,2.962 0,2.827Z" style="fill:#612516;fill-rule:nonzero;"/><path d="M25.462,381.642c3.668,-17.335 8.059,-34.661 14.091,-51.37c10.866,-30.105 28.054,-55.48 57.566,-70.544c33.726,-17.216 103.662,-37.352 113.93,-38.112c0,0 15.87,10.57 41.078,11.027c25.255,-0.114 41.02,-10.032 41.02,-10.032c10.268,0.759 75.54,19.901 109.266,37.117c29.512,15.064 46.7,40.44 57.566,70.544c6.031,16.709 10.423,34.035 14.092,51.37c1.137,5.375 2.886,19.671 2.886,19.671c-72.925,41.261 -142.243,63.281 -223.773,63.281c-86.53,0 -157.681,-22.019 -230.605,-63.281c-0,0 1.747,-14.296 2.885,-19.671Z" style="fill:#d90e00;fill-rule:nonzero;"/><path d="M474.089,387.745c-108.104,59.092 -238.406,81.179 -357.062,42.093c-32.066,-10.563 -62.722,-25.068 -91.258,-43.081c-1.536,-0.969 -0.117,-3.417 1.429,-2.441c51.154,32.29 109.507,53.418 169.699,60.306c59.213,6.775 120.518,-0.794 177.439,-17.841c34.192,-10.239 67.029,-24.371 98.324,-41.477c1.599,-0.874 3.029,1.566 1.429,2.441Z" style="fill:#a30b00;fill-rule:nonzero;"/><path d="M471.736,375.442c-105.925,57.902 -235.011,80.327 -351.65,43.018c-32.522,-10.402 -63.52,-25.039 -92.376,-43.253c-1.536,-0.97 -0.117,-3.418 1.43,-2.441c50.874,32.111 108.679,52.898 168.616,59.206c58.784,6.188 119.668,-1.238 176.135,-18.198c33.532,-10.072 65.722,-23.994 96.417,-40.773c1.6,-0.874 3.03,1.566 1.429,2.441Z" style="fill:#a30b00;fill-rule:nonzero;"/><path d="M468.705,364.445c-104.111,56.909 -232.664,79.114 -347.425,42.76c-32.066,-10.158 -62.531,-24.673 -90.948,-42.612c-1.536,-0.97 -0.117,-3.418 1.429,-2.442c50.044,31.594 106.544,51.943 165.556,57.835c58.139,5.805 118.532,-1.112 174.444,-17.701c33.244,-9.865 65.114,-23.664 95.514,-40.28c1.599,-0.874 3.03,1.566 1.43,2.441Z" style="fill:#a30b00;fill-rule:nonzero;"/><path d="M466.869,355.816c-104.814,54.738 -228.159,72.873 -342.665,39.642c-31.643,-9.184 -62.051,-22.174 -90.555,-38.679c-1.576,-0.912 -0.152,-3.356 1.429,-2.441c101.758,58.921 224.979,69.163 337.17,36.659c32.267,-9.349 63.429,-22.079 93.192,-37.622c1.613,-0.842 3.046,1.597 1.429,2.441Z" style="fill:#a30b00;fill-rule:nonzero;"/><path d="M462.458,344.604c-103.031,53.852 -224.457,71.755 -336.873,38.204c-30.972,-9.244 -60.684,-22.273 -88.448,-38.797c-1.564,-0.931 -0.142,-3.376 1.429,-2.441c99.413,59.162 220.743,69.516 331.031,37.544c31.661,-9.179 62.233,-21.691 91.432,-36.952c1.612,-0.843 3.046,1.596 1.429,2.441Z" style="fill:#a30b00;fill-rule:nonzero;"/><path d="M459.222,335.07c-104.465,46.285 -223.187,69.263 -334.911,35.793c-29.459,-8.825 -57.619,-21.508 -83.589,-37.972c-1.534,-0.972 -0.115,-3.42 1.429,-2.441c95.796,60.734 214.928,64.895 322.088,35.81c32.034,-8.694 63.223,-20.192 93.553,-33.631c1.652,-0.732 3.093,1.704 1.43,2.441Z" style="fill:#a30b00;fill-rule:nonzero;"/><path d="M456.672,324.213c-50.707,27.586 -106.412,45.315 -163.763,52.099c-55.765,6.595 -114.698,3.888 -168.395,-13.466c-28.7,-9.275 -55.634,-23.324 -78.398,-43.214c-1.375,-1.201 0.635,-3.194 2.002,-1.999c41.702,36.435 96.843,52.028 151.059,57.078c56.098,5.226 113.113,-0.424 167.178,-16.201c30.877,-9.009 60.646,-21.374 88.888,-36.738c1.601,-0.871 3.032,1.569 1.43,2.441Z" style="fill:#a30b00;fill-rule:nonzero;"/><path d="M450.408,312.013c-8.875,10.282 -21.459,15.825 -33.543,21.471c-13.086,6.114 -26.43,11.69 -40.003,16.638c-27.897,10.17 -56.807,17.694 -86.251,21.694c-55.46,7.533 -112.65,2.005 -164.403,-19.915c-26.966,-11.422 -51.822,-27.201 -73.35,-47.046c-1.342,-1.237 0.664,-3.232 2.002,-1.999c82.492,76.038 203.118,83.203 305.839,49.849c15.86,-5.15 31.431,-11.179 46.657,-17.972c14.309,-6.385 30.594,-12.605 41.052,-24.719c1.191,-1.38 3.187,0.627 2.002,1.999Z" style="fill:#a30b00;fill-rule:nonzero;"/><path d="M446.311,305.365c-98.478,46.874 -212.493,66.404 -318.576,34.21c-26.564,-8.061 -52.463,-19.112 -73.589,-37.475c-1.378,-1.197 0.633,-3.19 2.001,-1.999c39.061,33.953 96.571,46.592 146.857,51.049c52.781,4.678 106.076,-1.467 156.962,-15.907c29.196,-8.286 57.526,-19.282 84.914,-32.317c1.637,-0.779 3.075,1.658 1.429,2.441Z" style="fill:#a30b00;fill-rule:nonzero;"/><path d="M441.391,298.143c-93.873,42.593 -205.753,58.6 -306.588,32.918c-27.405,-6.98 -53.71,-17.686 -77.643,-32.793c-1.536,-0.97 -0.117,-3.417 1.43,-2.441c42.982,27.131 93.222,39.341 143.531,42.924c51.366,3.659 103.3,-1.015 153.245,-13.489c29.049,-7.255 57.339,-17.193 84.596,-29.56c1.647,-0.748 3.088,1.688 1.429,2.441Z" style="fill:#a30b00;fill-rule:nonzero;"/><path d="M435.428,289.479c-44.28,24.048 -97.113,30.743 -146.372,37.668c-51.94,7.302 -104.739,5.873 -156.061,-5.162c-25.566,-5.497 -51.218,-12.865 -72.088,-29.238c-1.432,-1.124 0.584,-3.112 2.002,-1.999c24.693,19.373 57.088,26.442 87.39,31.738c32.598,5.697 65.852,7.637 98.894,5.827c32.284,-1.769 64.327,-7.473 96.091,-13.281c30.662,-5.607 61.145,-13.02 88.715,-27.994c1.601,-0.87 3.032,1.571 1.429,2.441Z" style="fill:#a30b00;fill-rule:nonzero;"/><path d="M428.53,282.016c-27.823,13.742 -57.178,21.809 -87.77,26.631c-31.807,5.015 -63.943,9.068 -96.126,10.512c-59.721,2.68 -121.295,-5.291 -173.233,-36.68c-1.557,-0.942 -0.135,-3.388 1.43,-2.442c51.536,31.148 112.554,38.954 171.803,36.295c31.934,-1.433 63.815,-5.435 95.374,-10.41c30.353,-4.786 59.465,-12.702 87.093,-26.347c1.628,-0.804 3.064,1.633 1.429,2.441Z" style="fill:#a30b00;fill-rule:nonzero;"/><path d="M418.897,273.413c-26.052,13.02 -54.979,18.899 -83.395,24.351c-29.85,5.729 -60.096,9.816 -90.505,10.724c-56.596,1.689 -114.074,-8.238 -163.666,-36.511c-1.583,-0.902 -0.158,-3.345 1.429,-2.441c49.179,28.037 106.121,37.8 162.237,36.124c30.159,-0.9 60.148,-4.933 89.753,-10.622c28.146,-5.409 56.908,-11.168 82.716,-24.067c1.625,-0.813 3.061,1.625 1.43,2.441Z" style="fill:#a30b00;fill-rule:nonzero;"/><path d="M404.959,264.362c-20.14,14.594 -44.12,21.231 -68.457,24.818c-26.567,3.915 -53.691,5.806 -80.522,6.48c-54.072,1.357 -109.463,-5.764 -156.871,-33.387c-1.573,-0.917 -0.15,-3.361 1.429,-2.441c46.985,27.377 101.86,34.362 155.442,33c26.576,-0.675 53.451,-2.528 79.769,-6.378c24.094,-3.526 47.839,-10.084 67.781,-24.534c1.477,-1.071 2.891,1.381 1.429,2.441Z" style="fill:#a30b00;fill-rule:nonzero;"/><path d="M387.54,255.643c-38.153,27.746 -89.628,33.116 -135.486,34.285c-49.264,1.256 -99.24,-7.276 -141.867,-33.024c-1.557,-0.941 -0.135,-3.386 1.43,-2.441c42.222,25.503 91.645,33.886 140.437,32.638c45.399,-1.161 96.28,-6.427 134.057,-33.9c1.475,-1.073 2.889,1.379 1.429,2.441Z" style="fill:#a30b00;fill-rule:nonzero;"/><path d="M371.835,249.571c-34.444,25.697 -77.446,35.577 -119.917,34.986c-22.794,-0.318 -45.657,-3.307 -67.933,-8.076c-21.193,-4.537 -39.989,-13.609 -58.352,-24.902c-1.548,-0.952 -0.128,-3.399 1.43,-2.441c17.678,10.872 35.895,19.831 56.275,24.319c22.464,4.946 45.566,7.953 68.58,8.274c42.033,0.585 84.404,-9.172 118.488,-34.6c1.46,-1.09 2.874,1.364 1.429,2.441Z" style="fill:#a30b00;fill-rule:nonzero;"/><path d="M362.657,246.34c-70.307,45.528 -157.899,32.767 -231.652,3.249c-1.672,-0.668 -0.942,-3.404 0.752,-2.727c73.083,29.25 159.758,42.178 229.47,-2.964c1.533,-0.993 2.955,1.453 1.43,2.441Z" style="fill:#a30b00;fill-rule:nonzero;"/><path d="M346.61,240.842c-27.887,20.216 -62.009,31.143 -96.539,30.028c-18.124,-0.585 -36.156,-4.201 -53.767,-8.303c-16.958,-3.951 -33.515,-9.391 -47.53,-20.006c-1.433,-1.086 -0.024,-3.542 1.429,-2.441c13.45,10.187 29.255,15.545 45.521,19.405c17.785,4.221 36.033,7.928 54.347,8.518c34.08,1.1 67.592,-9.693 95.11,-29.641c1.477,-1.071 2.891,1.381 1.429,2.441Z" style="fill:#a30b00;fill-rule:nonzero;"/><path d="M332.736,235.964c-21.373,21.958 -51.868,29.049 -81.747,28.875c-29.584,-0.172 -63.971,-7.705 -86.537,-27.927c-1.359,-1.218 0.649,-3.213 2.002,-1.999c21.962,19.68 55.774,26.932 84.535,27.1c29.142,0.169 58.878,-6.61 79.744,-28.047c1.272,-1.308 3.274,0.693 2.003,1.999Z" style="fill:#a30b00;fill-rule:nonzero;"/><path d="M318.61,231.406c-16.19,18.802 -43.76,25.318 -67.655,25.594c-24.479,0.284 -53.588,-6.036 -70.889,-24.566c-1.242,-1.33 0.756,-3.334 2.002,-1.999c16.781,17.972 45.16,24.013 68.887,23.738c23.168,-0.269 49.95,-6.53 65.653,-24.767c1.19,-1.381 3.185,0.626 2.003,1.999Z" style="fill:#a30b00;fill-rule:nonzero;"/><path d="M308.992,228.827c-16.689,16.138 -39.595,22.831 -62.495,22.275c-20.971,-0.511 -43.783,-5.631 -58.634,-21.424c-1.248,-1.326 0.751,-3.33 2.002,-1.999c14.336,15.244 36.409,20.104 56.632,20.596c22.17,0.539 44.319,-5.807 60.493,-21.447c1.31,-1.266 3.315,0.73 2.003,1.999Z" style="fill:#a30b00;fill-rule:nonzero;"/><path d="M299.058,226.242c-13.442,12.327 -31.44,16.908 -49.356,16.822c-18.57,-0.088 -35.943,-4.604 -50.618,-16.284c-1.425,-1.134 0.591,-3.123 2.003,-1.999c14.06,11.191 30.854,15.372 48.615,15.457c17.153,0.081 34.465,-4.175 47.354,-15.995c1.34,-1.229 3.349,0.766 2.003,1.999Z" style="fill:#a30b00;fill-rule:nonzero;"/><path d="M432.914,756.662c-14.103,32.346 -32.088,62.852 -53.567,90.864c-1.093,1.425 -3.554,0.019 -2.445,-1.428c21.479,-28.011 39.463,-58.518 53.566,-90.863c0.725,-1.664 3.166,-0.226 2.445,1.427Z" style="fill:#d65200;fill-rule:nonzero;"/><path d="M52.644,783.163c11.584,21.175 28.51,39.112 49.015,51.886c1.543,0.961 0.123,3.408 -1.429,2.441c-20.903,-13.021 -38.219,-31.31 -50.033,-52.9c-0.873,-1.597 1.571,-3.026 2.446,-1.427Z" style="fill:#d65200;fill-rule:nonzero;"/><path d="M100.857,653.757c7.743,21.174 19.525,40.701 34.638,57.446c1.217,1.349 -0.778,3.354 -2.002,1.999c-15.454,-17.122 -27.45,-37.044 -35.366,-58.695c-0.627,-1.711 2.109,-2.449 2.731,-0.751Z" style="fill:#d65200;fill-rule:nonzero;"/><path d="M117.941,708.04c7.292,11.932 16.649,22.471 27.609,31.165c1.426,1.132 -0.589,3.121 -2.003,1.999c-11.14,-8.838 -20.641,-19.611 -28.052,-31.737c-0.951,-1.558 1.497,-2.98 2.446,-1.428Z" style="fill:#d65200;fill-rule:nonzero;"/><path d="M321.547,531.923c6.232,-16.247 11.094,-32.973 14.544,-50.026c0.36,-1.782 3.09,-1.027 2.73,0.752c-3.449,17.054 -8.312,33.78 -14.543,50.026c-0.646,1.683 -3.384,0.952 -2.731,-0.752Z" style="fill:#d65200;fill-rule:nonzero;"/><path d="M312.725,531.24c1.585,-7.906 3.17,-15.812 4.756,-23.718c0.357,-1.783 3.088,-1.028 2.73,0.752c-1.585,7.906 -3.17,15.812 -4.756,23.718c-0.357,1.783 -3.088,1.028 -2.73,-0.752Z" style="fill:#d65200;fill-rule:nonzero;"/><path d="M194.584,514.783c-4.377,-15.726 -7.225,-31.826 -8.541,-48.094c-0.146,-1.814 2.686,-1.805 2.832,0c1.296,16.019 4.13,31.858 8.44,47.342c0.489,1.755 -2.242,2.505 -2.731,0.752Z" style="fill:#d65200;fill-rule:nonzero;"/><path d="M182.854,510.251c-2.332,-6.925 -4.248,-13.979 -5.744,-21.129c-0.371,-1.776 2.357,-2.535 2.731,-0.752c1.494,7.15 3.412,14.204 5.743,21.129c0.581,1.728 -2.152,2.47 -2.731,0.752Z" style="fill:#d65200;fill-rule:nonzero;"/><path d="M348.382,531.868c6.14,-20.638 11.34,-41.538 15.588,-62.645c0.359,-1.782 3.089,-1.028 2.731,0.752c-4.248,21.107 -9.448,42.007 -15.588,62.645c-0.517,1.741 -3.251,0.999 -2.731,-0.752Z" style="fill:#d65200;fill-rule:nonzero;"/><path d="M171.728,607.589c-1.127,-7.34 -1.444,-14.759 -0.871,-22.165c0.14,-1.803 2.972,-1.818 2.832,0c-0.552,7.14 -0.318,14.333 0.77,21.414c0.117,0.761 -0.193,1.511 -0.988,1.74c-0.669,0.192 -1.626,-0.234 -1.742,-0.988Z" style="fill:#d65200;fill-rule:nonzero;"/><path d="M187.492,587.528c7.956,48.272 21.678,95.402 40.959,140.379c0.71,1.655 -1.73,3.096 -2.445,1.428c-19.384,-45.216 -33.246,-92.523 -41.245,-141.056c-0.294,-1.779 2.435,-2.545 2.731,-0.751Z" style="fill:#d65200;fill-rule:nonzero;"/><path d="M263.653,789.164c9.419,22.694 26.465,40.889 43.094,58.532c1.248,1.324 -0.751,3.328 -2.003,1.999c-17.001,-18.038 -34.198,-36.59 -43.822,-59.779c-0.698,-1.68 2.041,-2.412 2.73,-0.752Z" style="fill:#d65200;fill-rule:nonzero;"/><path d="M138.452,562.174l96.369,23.25l18.492,-48.212l-93.316,-34.335l-21.545,59.297Z" style="fill:#ffa600;fill-rule:nonzero;"/><path d="M247.077,536.18c-5.125,13.589 -10.249,27.179 -15.374,40.768c-0.728,1.931 -1.457,3.863 -2.185,5.793c-0.636,1.687 -3.374,0.956 -2.731,-0.751c5.125,-13.59 10.249,-27.179 15.374,-40.769c0.728,-1.93 1.457,-3.862 2.185,-5.793c0.637,-1.687 3.375,-0.956 2.731,0.752Z" style="fill:#eb7d00;fill-rule:nonzero;"/><path d="M240.35,534.12c-5.165,13.697 -10.33,27.394 -15.496,41.091c-0.733,1.946 -1.467,3.893 -2.202,5.84c-0.637,1.686 -3.374,0.956 -2.731,-0.752c5.165,-13.697 10.33,-27.394 15.495,-41.091c0.734,-1.946 1.468,-3.893 2.203,-5.84c0.637,-1.687 3.374,-0.956 2.731,0.752Z" style="fill:#eb7d00;fill-rule:nonzero;"/><path d="M235.413,532.653c-5.194,13.775 -10.388,27.549 -15.583,41.324c-0.738,1.958 -1.476,3.915 -2.214,5.873c-0.636,1.686 -3.375,0.956 -2.731,-0.752c5.195,-13.775 10.388,-27.549 15.583,-41.324c0.738,-1.958 1.476,-3.915 2.215,-5.873c0.636,-1.686 3.374,-0.955 2.73,0.752Z" style="fill:#eb7d00;fill-rule:nonzero;"/><path d="M228.594,529.689c-5.331,14.134 -10.66,28.269 -15.99,42.403c-0.758,2.008 -1.516,4.017 -2.273,6.026c-0.637,1.687 -3.374,0.956 -2.731,-0.751c5.33,-14.134 10.66,-28.269 15.99,-42.403c0.758,-2.009 1.515,-4.017 2.273,-6.027c0.637,-1.686 3.374,-0.955 2.731,0.752Z" style="fill:#eb7d00;fill-rule:nonzero;"/><path d="M218.646,525.727c-5.462,14.557 -10.923,29.114 -16.384,43.67c-0.777,2.069 -1.553,4.137 -2.329,6.207c-0.634,1.688 -3.372,0.957 -2.731,-0.752c5.462,-14.556 10.923,-29.114 16.385,-43.67c0.776,-2.069 1.552,-4.137 2.328,-6.207c0.634,-1.688 3.372,-0.957 2.731,0.752Z" style="fill:#eb7d00;fill-rule:nonzero;"/><path d="M211.332,522.957c-5.622,14.808 -11.245,29.616 -16.867,44.424c-0.799,2.104 -1.599,4.208 -2.398,6.313c-0.64,1.684 -3.378,0.954 -2.731,-0.752c5.623,-14.807 11.245,-29.616 16.867,-44.423c0.799,-2.105 1.599,-4.209 2.398,-6.314c0.64,-1.684 3.378,-0.954 2.73,0.752Z" style="fill:#eb7d00;fill-rule:nonzero;"/><path d="M205.538,520.794c-5.702,15.016 -11.403,30.032 -17.105,45.049c-0.81,2.134 -1.62,4.267 -2.431,6.402c-0.639,1.685 -3.378,0.954 -2.73,-0.752c5.701,-15.016 11.403,-30.032 17.104,-45.048c0.81,-2.134 1.621,-4.268 2.431,-6.403c0.64,-1.684 3.378,-0.954 2.731,0.752Z" style="fill:#eb7d00;fill-rule:nonzero;"/><path d="M197.315,518.293c-5.751,15.148 -11.504,30.296 -17.255,45.444c-0.818,2.153 -1.635,4.306 -2.453,6.459c-0.64,1.685 -3.378,0.954 -2.73,-0.752c5.751,-15.148 11.503,-30.296 17.255,-45.444c0.817,-2.153 1.635,-4.306 2.452,-6.459c0.64,-1.685 3.378,-0.954 2.731,0.752Z" style="fill:#eb7d00;fill-rule:nonzero;"/><path d="M187.975,514.783c-5.879,15.484 -11.759,30.968 -17.638,46.453c-0.836,2.201 -1.671,4.401 -2.507,6.602c-0.64,1.684 -3.378,0.954 -2.731,-0.752c5.879,-15.484 11.759,-30.968 17.638,-46.454c0.836,-2.2 1.672,-4.401 2.507,-6.601c0.64,-1.685 3.378,-0.954 2.731,0.752Z" style="fill:#eb7d00;fill-rule:nonzero;"/><path d="M179.841,511.757c-5.995,15.788 -11.99,31.577 -17.984,47.364c-0.852,2.244 -1.704,4.488 -2.556,6.732c-0.64,1.685 -3.378,0.954 -2.731,-0.752c5.995,-15.788 11.989,-31.577 17.984,-47.365c0.852,-2.243 1.704,-4.487 2.556,-6.731c0.64,-1.684 3.378,-0.954 2.731,0.752Z" style="fill:#eb7d00;fill-rule:nonzero;"/><path d="M171.739,509.133c-6.073,15.949 -12.144,31.898 -18.217,47.848c-0.863,2.266 -1.727,4.533 -2.589,6.8c-0.642,1.684 -3.38,0.953 -2.731,-0.752c6.073,-15.95 12.144,-31.899 18.217,-47.848c0.863,-2.267 1.726,-4.534 2.589,-6.8c0.642,-1.685 3.38,-0.954 2.731,0.752Z" style="fill:#eb7d00;fill-rule:nonzero;"/><path d="M143.167,170.707c0,-18.455 15.007,-33.438 33.491,-33.438c18.484,0 33.491,14.983 33.491,33.438c0,18.455 -15.007,33.438 -33.491,33.438c-18.484,0 -33.491,-14.983 -33.491,-33.438Z" style="fill:#ffa600;"/><path d="M170.42,132.515c0,-3.432 2.799,-6.226 6.235,-6.226c3.443,0 6.242,2.794 6.242,6.226c0,3.431 -2.799,6.225 -6.242,6.225c-3.436,0 -6.235,-2.794 -6.235,-6.225Zm1.92,0c0,2.378 1.934,4.315 4.316,4.315c2.382,0 4.328,-1.936 4.328,-4.315c0,-2.378 -1.946,-4.315 -4.328,-4.315c-2.382,0 -4.316,1.936 -4.316,4.315Z" style="fill:#eb7d00;fill-rule:nonzero;"/><path d="M170.163,170.707c0,-3.579 2.91,-6.485 6.495,-6.485c3.585,0 6.495,2.906 6.495,6.485c0,3.579 -2.91,6.485 -6.495,6.485c-3.585,0 -6.495,-2.906 -6.495,-6.485Z" style="fill:#d90e00;"/><path d="M482.328,428.655c-25.405,15.17 -52.775,24.967 -82.095,29.191c-7.13,1.027 -10.21,-9.868 -3.011,-10.905c28.419,-4.093 54.713,-13.316 79.388,-28.051c6.271,-3.745 11.973,6.03 5.717,9.766Z" style="fill:#ffa600;fill-rule:nonzero;"/><path d="M488.587,445.861c-25.405,15.17 -52.775,24.967 -82.095,29.19c-7.13,1.027 -10.209,-9.869 -3.011,-10.906c28.419,-4.093 54.713,-13.315 79.388,-28.05c6.271,-3.745 11.974,6.029 5.717,9.766Z" style="fill:#ffa600;fill-rule:nonzero;"/><path d="M144.028,495.69c-7.729,19.724 -14.624,39.714 -20.696,60.007c-2.082,6.957 -13.017,3.993 -10.922,-3.007c6.073,-20.293 12.967,-40.282 20.695,-60.006c2.627,-6.703 13.585,-3.786 10.923,3.006Z" style="fill:#d1c4a9;fill-rule:nonzero;"/><path d="M126.802,490.941c-8.474,19.404 -15.82,39.208 -22.165,59.403c-2.174,6.921 -13.113,3.966 -10.922,-3.006c6.641,-21.14 14.438,-41.8 23.307,-62.105c2.906,-6.655 12.669,-0.904 9.78,5.708Z" style="fill:#d1c4a9;fill-rule:nonzero;"/><path d="M203.047,906.77c28.816,164.871 42.166,332.371 39.536,499.721c-0.743,47.322 -2.778,94.615 -6.03,141.83c-0.124,1.806 -2.957,1.819 -2.831,0c11.42,-165.795 7.364,-332.58 -12.322,-497.606c-5.716,-47.915 -12.776,-95.659 -21.084,-143.193c-0.311,-1.78 2.417,-2.543 2.731,-0.752Z" style="fill:#d65200;fill-rule:nonzero;"/><path d="M176.473,1523.565l-47.733,-29.942l9.581,-55.725l47.861,30.224l-9.709,55.444Z" style="fill:#ffb273;fill-rule:nonzero;"/><path d="M130.307,1421.841l-47.733,-29.942l9.581,-55.725l47.862,30.224l-9.709,55.444Z" style="fill:#ffb273;fill-rule:nonzero;"/><path d="M359.497,1312.48l-47.733,-29.943l9.581,-55.725l47.862,30.224l-9.709,55.445Z" style="fill:#ffb273;fill-rule:nonzero;"/><path d="M126.438,1435.546l-9.708,55.445l-44.432,-27.872c-0.493,-4.285 -0.98,-8.571 -1.447,-12.859l7.725,-44.936l47.861,30.223Z" style="fill:#ffb273;fill-rule:nonzero;"/><path d="M173.103,1543.53l-1.462,8.345c-17.427,-1.575 -34.871,-2.932 -52.334,-4.056l5.934,-34.512l47.862,30.223Z" style="fill:#ffb273;fill-rule:nonzero;"/><path d="M107.035,1547.079c-8.09,-0.472 -16.181,-0.942 -24.277,-1.32c-2.607,-19.631 -5.198,-39.28 -7.633,-58.948l38.234,24.143l-6.325,36.124Z" style="fill:#ffb273;fill-rule:nonzero;"/><path d="M70.204,1386.983l-5.183,-3.252c-0.828,-12.959 -1.509,-25.93 -1.859,-38.923c-0.216,-8.003 -0.265,-15.993 -0.204,-23.976l16.954,10.705l-9.709,55.445Z" style="fill:#ffb273;fill-rule:nonzero;"/><path d="M149.649,1376.842c8.637,23.723 17.961,47.185 27.99,70.355l-36.183,-22.698l8.192,-47.657Z" style="fill:#ffb273;fill-rule:nonzero;"/><path d="M103.336,1263.893l12.186,7.695c3.84,13.378 7.818,26.715 11.976,39.999c3.847,12.291 7.856,24.535 12.007,36.728l-45.75,-28.698l9.581,-55.725Z" style="fill:#ffb273;fill-rule:nonzero;"/><path d="M81.386,1314.702l-18.038,-11.315c0.576,-19.9 1.745,-39.759 3.246,-59.601l24.499,15.471l-9.708,55.445Z" style="fill:#ffb273;fill-rule:nonzero;"/><path d="M100.895,1217.47l-4.783,27.316l-28.195,-17.685c1.592,-19.548 3.291,-39.096 4.779,-58.676l18.969,11.978c2.975,12.381 6.057,24.735 9.23,37.067Z" style="fill:#ffb273;fill-rule:nonzero;"/><path d="M196.781,1489.307c11.388,23.514 23.626,46.615 36.832,69.156c-0.327,-0.039 -0.654,-0.076 -0.981,-0.115l-43.075,-27.021l7.224,-42.02Z" style="fill:#ffb273;fill-rule:nonzero;"/><path d="M190.265,1553.666c-1.528,-0.153 -3.054,-0.318 -4.582,-0.467l0.376,-2.188l4.206,2.656Z" style="fill:#ffb273;fill-rule:nonzero;"/><path d="M356.329,1400.817l40.591,25.632c-2.38,18.792 -5.261,37.52 -8.606,56.166l-41.565,-26.072l9.581,-55.725Z" style="fill:#ffb273;fill-rule:nonzero;"/><path d="M334.739,1453.911l-20.208,-12.676c-0.21,-3.419 -0.433,-6.839 -0.638,-10.258c-1.073,-17.821 -1.917,-35.653 -2.667,-53.489l33.221,20.978l-9.708,55.445Z" style="fill:#ffb273;fill-rule:nonzero;"/><path d="M358.025,1329.317l-9.708,55.444l-37.751,-23.679c-0.687,-17.574 -1.33,-35.15 -1.994,-52.725l1.592,-9.263l47.861,30.224Z" style="fill:#ffb273;fill-rule:nonzero;"/><path d="M343.251,1476.225l41.313,26.088c-2.113,10.663 -4.33,21.307 -6.755,31.907c-9.628,2.913 -19.376,5.262 -29.197,7.103l-14.941,-9.373l9.58,-55.725Z" style="fill:#ffb273;fill-rule:nonzero;"/><path d="M321.66,1529.319l-1.892,-1.187c-1.192,-21.336 -2.465,-42.665 -3.808,-63.987l15.409,9.73l-9.709,55.444Z" style="fill:#ffb273;fill-rule:nonzero;"/><path d="M385.05,1258.481l20.137,12.716c0.342,15.711 0.408,31.436 -0.004,47.182c-0.123,4.71 -0.364,9.414 -0.548,14.122l-29.166,-18.295l9.581,-55.725Z" style="fill:#ffb273;fill-rule:nonzero;"/><path d="M369.046,1331.694l34.572,21.832c-1.148,19.521 -2.839,39.003 -5.038,58.43l-39.115,-24.536l9.581,-55.725Z" style="fill:#ffb273;fill-rule:nonzero;"/><path d="M305.619,1242.077c-0.413,-7.657 -0.877,-15.311 -1.369,-22.964l4.854,3.064l-3.485,19.9Z" style="fill:#ffb273;fill-rule:nonzero;"/><path d="M314.121,1207.707l-11.077,-6.949c-1.545,-21.49 -3.011,-42.983 -4.514,-64.472l25.299,15.976l-9.708,55.445Z" style="fill:#ffb273;fill-rule:nonzero;"/><path d="M397.596,1237.297c-13.22,33.001 -31.737,63.583 -54.88,90.592c-1.187,1.384 -3.181,-0.623 -2.002,-1.999c22.803,-26.614 41.124,-56.823 54.152,-89.344c0.668,-1.669 3.408,-0.941 2.73,0.752Z" style="fill:#d65200;fill-rule:nonzero;"/><path d="M383.401,1300.492c-15.796,30.613 -35.688,58.954 -59.09,84.249c-1.239,1.34 -3.237,-0.663 -2.003,-1.998c23.245,-25.126 42.959,-53.272 58.648,-83.677c0.834,-1.617 3.279,-0.189 2.445,1.427Z" style="fill:#d65200;fill-rule:nonzero;"/><path d="M474.57,400.872c-99.484,82.596 -237.989,91.428 -356.988,50.406c-32.746,-11.289 -67.058,-24.89 -92.539,-49.049c-1.766,-1.674 0.908,-4.337 2.67,-2.665c22.928,21.739 53.134,34.39 82.443,45.088c29.849,10.895 60.79,18.899 92.269,23.346c61.172,8.642 124.269,3.215 182.123,-18.93c31.662,-12.119 61.273,-29.208 87.352,-50.861c1.856,-1.541 4.54,1.113 2.67,2.665Z" style="fill:#d90e00;fill-rule:nonzero;"/><path d="M473.42,388.152c-17.141,20.093 -40.234,32.977 -64.725,42.136c-28.692,10.731 -59.216,18.163 -89.156,24.448c-64.444,13.527 -130.925,6.755 -193.814,-11.338c-34.954,-10.056 -68.697,-23.896 -100.752,-41.045c-1.607,-0.86 -0.178,-3.301 1.429,-2.441c56.236,30.085 118.228,50.117 181.736,57.032c32.709,3.561 65.819,3.251 98.259,-2.524c29.375,-5.23 58.879,-12.821 87.295,-21.934c29.164,-9.352 57.514,-22.641 77.726,-46.334c1.184,-1.386 3.178,0.621 2.002,1.999Z" style="fill:#a30b00;fill-rule:nonzero;"/></g></svg>